<svg width="32" height="31" viewBox="0 0 32 31" fill="none" xmlns="http://www.w3.org/2000/svg">
<path d="M31.2891 14.2813C31.4974 14.4896 31.6016 14.7292 31.6016 15C31.6016 15.2708 31.4974 15.5104 31.2891 15.7187L16.7266 30.2813C16.5182 30.4896 16.2786 30.5938 16.0078 30.5938C15.737 30.5938 15.4974 30.4896 15.2891 30.2813L0.726563 15.7187C0.518229 15.5104 0.414062 15.2708 0.414062 15C0.414062 14.7292 0.518229 14.4896 0.726563 14.2813L2.28906 12.7187C2.4974 12.5104 2.73698 12.4063 3.00781 12.4063C3.27865 12.4063 3.51823 12.5104 3.72656 12.7187L16.0078 25L28.2891 12.7187C28.4974 12.5104 28.737 12.4063 29.0078 12.4063C29.2786 12.4063 29.5182 12.5104 29.7266 12.7187L31.2891 14.2813ZM31.2891 2.28125C31.4974 2.48958 31.6016 2.72917 31.6016 3C31.6016 3.27083 31.4974 3.51042 31.2891 3.71875L16.7266 18.2812C16.5182 18.4896 16.2786 18.5938 16.0078 18.5938C15.737 18.5938 15.4974 18.4896 15.2891 18.2812L0.726563 3.71875C0.518229 3.51042 0.414062 3.27083 0.414062 3C0.414062 2.72917 0.518229 2.48958 0.726563 2.28125L2.28906 0.718749C2.4974 0.510417 2.73698 0.406251 3.00781 0.406251C3.27865 0.406251 3.51823 0.510417 3.72656 0.718749L16.0078 13L28.2891 0.718749C28.4974 0.510417 28.737 0.406251 29.0078 0.406251C29.2786 0.406251 29.5182 0.510417 29.7266 0.718749L31.2891 2.28125Z" fill="white"/>
</svg>
