<svg width="175" height="178" viewBox="0 0 175 178" fill="none" xmlns="http://www.w3.org/2000/svg">
<rect width="175" height="178" fill="black" fill-opacity="0"/>
<rect width="175" height="178" fill="black" fill-opacity="0"/>
<path d="M175 93.5286V178H0V93.5286L87.5 30.1748L175 93.5286Z" fill="#FAC176"/>
<rect width="90.5172" height="174.976" fill="black" fill-opacity="0" transform="translate(42.2415 3.02393)"/>
<path d="M132.759 178H42.2415V123.697L87.5 111.63L132.759 123.697V178Z" fill="#F9EAB0"/>
<path d="M117.672 23.1462V119.564L87.4999 111.63L57.3278 119.564V23.1462L87.4999 3.02393L117.672 23.1462Z" fill="#F9EAB0"/>
<rect width="102.586" height="56.0532" fill="black" fill-opacity="0" transform="translate(36.207 121.947)"/>
<path d="M48.276 121.947V178H36.207V125.115" fill="#E57E25"/>
<path d="M138.793 125.115V178H126.724V121.947L138.793 125.115Z" fill="#E57E25"/>
<rect width="175" height="57.3199" fill="black" fill-opacity="0" transform="translate(0 48.2759)"/>
<path d="M175 105.596L158.617 93.5286L117.673 63.3601V48.2759L158.617 78.4443L175 90.5117V105.596Z" fill="#D25627"/>
<path d="M57.3278 63.3606L16.3838 93.5291L0 105.596V90.5122L16.3838 78.4448L57.3278 48.2764V63.3606Z" fill="#D25627"/>
<path d="M87.5 129.73V178H66.3792V135.764C66.3792 132.432 69.0811 129.73 72.4137 129.73H87.5Z" fill="#E57E25"/>
<rect width="33.1898" height="159.893" fill="black" fill-opacity="0" transform="translate(75.431 18.1074)"/>
<path d="M108.621 135.764V178H87.5V129.73H102.586C105.919 129.73 108.621 132.432 108.621 135.764Z" fill="#F29C1F"/>
<path d="M96.5517 27.158H90.5172V21.1243C90.5172 19.458 89.1665 18.1074 87.5 18.1074C85.8335 18.1074 84.4827 19.458 84.4827 21.1243V27.158H78.4482C76.7817 27.158 75.431 28.5086 75.431 30.1748C75.431 31.8411 76.7817 33.1917 78.4482 33.1917H84.4827V54.3096C84.4827 55.9758 85.8335 57.3264 87.5 57.3264C89.1665 57.3264 90.5172 55.9758 90.5172 54.3096V33.1917H96.5517C98.2182 33.1917 99.569 31.8411 99.569 30.1748C99.569 28.5086 98.2182 27.158 96.5517 27.158Z" fill="#F29C1F"/>
<path d="M87.5 96.5454C95.8319 96.5454 102.586 89.792 102.586 81.4612C102.586 73.1304 95.8319 66.377 87.5 66.377C79.168 66.377 72.4137 73.1304 72.4137 81.4612C72.4137 89.792 79.168 96.5454 87.5 96.5454Z" fill="#2FA8CC"/>
<rect width="120.689" height="129.731" fill="black" fill-opacity="0" transform="translate(27.1573)"/>
<path d="M52.9678 29.668L87.5 6.64363L122.032 29.6621C122.929 30.2604 124.077 30.3348 125.044 29.8572C126.01 29.3795 126.648 28.4228 126.718 27.3472C126.788 26.2716 126.278 25.2405 125.381 24.6422L89.1748 0.507385C88.161 -0.169128 86.8397 -0.169128 85.8255 0.507385L49.6185 24.6422C48.2319 25.5669 47.8578 27.4403 48.7826 28.8264C49.7075 30.2128 51.5812 30.5869 52.9674 29.6621V29.668H52.9678Z" fill="#D25627"/>
<path d="M145.6 123.796L88.2725 108.712C87.7684 108.579 87.2382 108.579 86.7337 108.712L29.4062 123.796C27.7947 124.221 26.8329 125.872 27.2578 127.483C27.6827 129.094 29.3335 130.056 30.9447 129.631L87.5 114.749L144.055 129.631C144.308 129.696 144.567 129.73 144.828 129.73C146.344 129.731 147.626 128.605 147.821 127.101C148.016 125.598 147.064 124.183 145.597 123.796H145.6Z" fill="#D25627"/>
</svg>
