<svg width="198" height="229" viewBox="0 0 198 229" fill="none" xmlns="http://www.w3.org/2000/svg">
<rect width="197.545" height="228.394" fill="black" fill-opacity="0" transform="translate(0.454529)"/>
<rect width="197.545" height="228.394" fill="black" fill-opacity="0" transform="translate(0.454529)"/>
<path d="M3.36643 136.903H10.0997L11.9959 133.428H3.11137L3.36643 136.903Z" fill="#898785"/>
<path d="M37.6752 67.3104C42.7569 67.3104 46.8914 61.4027 46.8914 54.1412V51.0962C44.867 50.6954 43.4349 49.2941 42.7619 47.0986C41.4846 47.8883 39.7042 48.363 37.6752 48.363C35.6458 48.363 33.8654 47.8878 32.5881 47.0981C31.9161 49.2921 30.4804 50.6849 28.4585 51.0872V54.1407C28.4585 61.4027 32.5931 67.3104 37.6752 67.3104ZM41.5307 54.3956C41.9967 53.9308 42.8335 53.9308 43.2996 54.3956C43.5351 54.6305 43.6704 54.9503 43.6704 55.2802C43.6704 55.61 43.5351 55.9299 43.2996 56.1648C43.0691 56.3946 42.7433 56.5296 42.4176 56.5296C42.0869 56.5296 41.7612 56.3946 41.5307 56.1648C41.2952 55.9349 41.1649 55.61 41.1649 55.2802C41.1649 54.9503 41.2952 54.631 41.5307 54.3956ZM36.0221 61.3447C36.2576 61.4712 36.8314 61.6521 37.6752 61.6521C38.5186 61.6521 39.0923 61.4707 39.3278 61.3447C39.4832 60.8305 39.6388 61.3057 40.2045 61.3057C40.8966 61.3057 40.8068 62.4186 40.8068 63.1088C40.8068 64.5486 39.61 62.5078 37.1932 62.5078C34.7759 62.5078 34.7841 63.9476 34.7841 62.5078C34.7841 61.8176 34.6943 61.3447 35.3864 61.3447C35.9526 61.3447 35.8673 60.8305 36.0221 61.3447ZM31.6841 55.2802C31.6841 54.9503 31.8144 54.6305 32.0499 54.3956C32.5159 53.9308 33.3527 53.9308 33.8188 54.3956C34.0543 54.6305 34.1846 54.9503 34.1846 55.2802C34.1846 55.61 34.0543 55.9299 33.8188 56.1648C33.5883 56.3946 33.2625 56.5296 32.9368 56.5296C32.6061 56.5296 32.2804 56.3946 32.0499 56.1648C31.8144 55.9299 31.6841 55.61 31.6841 55.2802Z" fill="#D8B4A4"/>
<path d="M12.4238 84.4322C12.4198 84.4721 12.4133 84.5176 12.4058 84.5566L3.28624 130.929H13.0747L19.8822 96.6108L14.13 80.1412C12.6613 82.3052 12.4388 84.2792 12.4238 84.4322Z" fill="#898785"/>
<path d="M2.98411 141.789C2.8864 142.537 3.08784 143.281 3.55085 143.881C4.01387 144.481 4.68334 144.865 5.43599 144.963C6.19065 145.06 6.93528 144.86 7.5371 144.398C8.13892 143.936 8.52427 143.268 8.62198 142.517C8.62649 142.483 8.632 142.448 8.63952 142.414L9.29195 139.402H3.3003L2.98411 141.789Z" fill="#D8B4A4"/>
<path d="M33.0856 76.7267L30.6693 72.01L27.4999 73.0995L27.7625 79.1446L33.0856 76.7267Z" fill="#898785"/>
<path d="M22.3766 96.1778C22.3902 96.2253 22.4032 96.2728 22.4112 96.3223C22.4177 96.3608 22.4197 96.3982 22.4217 96.4367C22.4238 96.4652 22.4298 96.4922 22.4298 96.5212V138.083H36.421V83.2376L34.2261 78.9537L27.11 82.1866C26.9447 82.2616 26.7673 82.2991 26.5909 82.2991C26.3629 82.2991 26.1359 82.2371 25.936 82.1147C25.5812 81.8973 25.3572 81.5184 25.3391 81.1036L25.028 73.9481L22.0088 74.9861C21.9778 74.9966 21.9472 75.0061 21.9151 75.0141C19.3019 75.6903 17.4082 76.7857 16.0322 77.9937L22.3591 96.1089C22.3681 96.1319 22.3701 96.1549 22.3766 96.1778Z" fill="#898785"/>
<path d="M51.7671 220.784H42.6717V225.895H56.6333C56.5201 224.794 56.1683 223.157 55.1095 222.044C54.3017 221.196 53.2088 220.784 51.7671 220.784Z" fill="#736357"/>
<path d="M53.4338 75.0147C53.4022 75.0067 53.3712 74.9972 53.3401 74.9867L50.321 73.9492L50.0098 81.1043C49.9917 81.5191 49.7678 81.8979 49.413 82.1153C49.213 82.2377 48.986 82.2997 48.758 82.2997C48.5811 82.2997 48.4043 82.2622 48.2389 82.1872L41.1228 78.9543L38.9285 83.2382V138.082H52.9197V96.5208C52.9197 96.4918 52.9257 96.4648 52.9277 96.4363C52.9302 96.3983 52.9322 96.3604 52.9387 96.3219C52.9467 96.2724 52.9598 96.2254 52.9733 96.1779C52.9798 96.155 52.9818 96.132 52.9898 96.109L59.3172 77.9938C57.9407 76.7863 56.0475 75.6909 53.4338 75.0147Z" fill="#898785"/>
<path d="M52.9197 140.58H22.4298V218.285H32.7419L36.423 147.603C36.4591 146.914 37.0423 146.381 37.7389 146.42C38.3853 146.454 38.8859 146.972 38.9185 147.604L38.927 147.603L42.6081 218.285H52.9197V140.58Z" fill="#5576A5"/>
<path d="M20.241 222.044C19.1821 223.157 18.8309 224.793 18.7166 225.895H32.6782V220.784H23.5828C22.1411 220.783 21.0482 221.196 20.241 222.044Z" fill="#736357"/>
<path d="M62.9442 84.5571C62.9357 84.5141 62.9297 84.4706 62.9256 84.4267C62.9106 84.2762 62.6886 82.3042 61.2204 80.1412L55.4678 96.6108L62.2747 130.929H72.0637L62.9442 84.5571Z" fill="#898785"/>
<path d="M111.882 26.0194C116.359 26.0194 120.001 22.3866 120.001 17.9218C120.001 13.457 116.359 9.82422 111.882 9.82422C107.405 9.82422 103.763 13.457 103.763 17.9218C103.763 22.3866 107.405 26.0194 111.882 26.0194Z" fill="white"/>
<path d="M83.0869 28.3379C86.107 28.3379 88.5639 25.8876 88.5639 22.8756C88.5639 19.8635 86.107 17.4132 83.0869 17.4132C80.0668 17.4132 77.6099 19.8635 77.6099 22.8756C77.6099 25.8876 80.0668 28.3379 83.0869 28.3379Z" fill="white"/>
<path d="M108.556 57.0429C109.158 57.1568 109.574 57.6815 109.573 58.2703H109.575V61.2958C109.575 65.8876 107.828 69.9476 105.17 72.3754V77.7198L112.243 79.4125C113.408 79.6854 114.453 80.0802 115.395 80.557C121.93 73.8112 112.786 56.1158 112.69 55.9324C112.596 55.754 112.548 55.5551 112.548 55.3537C112.548 52.0198 111.543 49.3676 109.563 47.4715C106.763 44.7898 102.682 44.1866 100.679 44.0562V50.523C100.678 55.4916 108.478 57.0279 108.556 57.0429Z" fill="#CC7050"/>
<path d="M99.4257 74.7447C98.2937 74.7447 97.2053 74.4944 96.1881 74.0386V78.7048C96.1881 79.2825 95.7912 79.7848 95.2275 79.9197L90.3598 81.0847C90.9892 83.9598 94.4678 85.8329 99.4257 85.8329C104.384 85.8329 107.862 83.9603 108.494 81.0852L103.625 79.9202C103.062 79.7853 102.665 79.283 102.665 78.7053V74.0391C101.647 74.4938 100.558 74.7447 99.4257 74.7447Z" fill="#FCEBE6"/>
<path d="M86.615 79.411L93.6826 77.7198V72.3759C91.0237 69.9485 89.2769 65.888 89.2769 61.2957V58.2702H89.2784C89.2779 57.682 89.6943 57.1572 90.2946 57.0428C90.3958 57.0233 98.1734 55.4631 98.1734 50.5225V44.0586C96.163 44.1935 92.0665 44.8037 89.2794 47.4809C87.3061 49.377 86.3054 52.0252 86.3054 55.3536C86.3054 55.555 86.2563 55.7539 86.1631 55.9323C86.0673 56.1157 76.9218 73.8127 83.4586 80.5574C84.4017 80.0801 85.448 79.6843 86.615 79.411Z" fill="#CC7050"/>
<path d="M61.2459 40.7377C63.1822 40.7377 64.7571 39.167 64.7571 37.2359C64.7571 35.3049 63.1822 33.7341 61.2459 33.7341C59.3097 33.7341 57.7347 35.3049 57.7347 37.2359C57.7347 39.167 59.3097 40.7377 61.2459 40.7377Z" fill="white"/>
<path d="M37.6752 69.8091C35.8352 69.8091 34.0939 69.2379 32.5425 68.2239V70.1749L37.6752 80.1936L42.8075 70.1754V68.2249C41.2561 69.2379 39.5148 69.8091 37.6752 69.8091Z" fill="#D8B4A4"/>
<path d="M30.519 43.9053C30.519 43.2151 31.0797 42.6559 31.7717 42.6559H31.7722H31.7727C32.4648 42.6559 33.0255 43.2151 33.0255 43.9053C33.0255 44.6854 34.8801 45.8643 37.6752 45.8643C40.4703 45.8643 42.3244 44.6849 42.3244 43.9053C42.3244 43.2151 42.8851 42.6559 43.5771 42.6559H43.5776C43.5776 42.6559 43.5776 42.6559 43.5781 42.6559C44.2702 42.6559 44.8309 43.2151 44.8309 43.9053C44.8309 46.4205 45.5244 47.9553 46.8914 48.4955V43.1042C46.8934 42.9967 46.9085 41.3105 45.4407 39.8192C43.8888 38.242 41.2761 37.4419 37.6752 37.4419C34.0738 37.4419 31.4611 38.242 29.9087 39.8192C28.4414 41.3105 28.4565 42.9962 28.458 43.0677V48.4955C29.825 47.9553 30.519 46.4205 30.519 43.9053Z" fill="#C69C6D"/>
<path d="M91.7825 61.2958C91.7825 67.3334 95.2115 72.246 99.4257 72.246C103.64 72.246 107.07 67.3339 107.07 61.2958V59.2538C105.234 58.753 101.409 57.4102 99.4257 54.5391C97.4429 57.4102 93.617 58.753 91.7825 59.2538V61.2958ZM103.141 60.8675C103.607 60.4027 104.444 60.4027 104.91 60.8675C105.145 61.1024 105.276 61.4222 105.276 61.7521C105.276 62.0819 105.145 62.4018 104.91 62.6366C104.679 62.8665 104.354 63.0015 104.028 63.0015C103.697 63.0015 103.371 62.8665 103.141 62.6366C102.905 62.4018 102.775 62.0819 102.775 61.7521C102.775 61.4222 102.905 61.1024 103.141 60.8675ZM97.6634 66.6902C97.9049 66.8256 98.5147 67.026 99.4257 67.026C100.337 67.026 100.947 66.8261 101.189 66.6902C101.337 66.1659 101.665 66.715 102.239 66.715C102.931 66.715 102.841 67.828 102.841 68.5181C102.841 69.9864 101.712 67.9171 99.2273 67.9171C96.7423 67.9171 96.2159 69.3854 96.2159 67.9171C96.2159 67.2269 96.2787 67.026 96.9707 67.026C97.544 67.0255 97.5146 66.1659 97.6634 66.6902ZM93.9407 60.8675C94.4117 60.4027 95.2486 60.4027 95.7146 60.8675C95.9451 61.1024 96.0804 61.4222 96.0804 61.7521C96.0804 62.0819 95.9451 62.4018 95.7146 62.6366C95.4791 62.8665 95.1584 63.0015 94.8277 63.0015C94.4969 63.0015 94.1762 62.8665 93.9407 62.6366C93.7052 62.4018 93.5749 62.0819 93.5749 61.7521C93.5749 61.4222 93.7052 61.1024 93.9407 60.8675Z" fill="#FCEBE6"/>
<path d="M42.2643 76.7267L47.5875 79.1451L47.85 73.0995L44.6801 72.01L42.2643 76.7267Z" fill="#898785"/>
<path d="M174.311 17.0956C173.632 17.0956 172.958 17.205 172.307 17.4214C168.991 18.5224 167.192 22.1082 168.296 25.415C169.16 28.0018 171.576 29.74 174.308 29.74C174.987 29.74 175.661 29.6305 176.311 29.4141C177.917 28.8809 179.219 27.7559 179.976 26.2456C180.734 24.7359 180.856 23.0222 180.322 21.4205C179.457 18.8337 177.042 17.0956 174.311 17.0956ZM173.568 27.0807C173.392 27.1387 173.216 27.1672 173.041 27.1672C172.036 27.1672 171.08 26.2307 170.556 24.6644C169.942 22.8233 170.328 21.322 171.515 20.9282C172.172 20.7098 172.881 21.0647 173.1 21.7193C173.258 22.1926 173.116 22.6929 172.778 23.0167C172.775 23.1936 172.808 23.498 172.934 23.8753C173.06 24.2516 173.216 24.5145 173.325 24.6549C173.79 24.7119 174.204 25.0282 174.362 25.5015C174.58 26.1557 174.224 26.8628 173.568 27.0807ZM174.057 20.8368C173.826 20.6019 173.691 20.282 173.691 19.9522C173.691 19.6224 173.826 19.3025 174.057 19.0676C174.523 18.6029 175.364 18.6029 175.83 19.0676C176.066 19.3025 176.196 19.6224 176.196 19.9522C176.196 20.282 176.066 20.6019 175.83 20.8368C175.595 21.0667 175.274 21.2016 174.943 21.2016C174.613 21.2016 174.292 21.0667 174.057 20.8368ZM177.785 26.6939C177.554 26.9288 177.228 27.0588 176.903 27.0588C176.572 27.0588 176.246 26.9288 176.016 26.6939C175.78 26.464 175.65 26.1392 175.65 25.8094C175.65 25.4845 175.78 25.1597 176.016 24.9298C176.482 24.465 177.319 24.465 177.785 24.9298C178.02 25.1597 178.156 25.4845 178.156 25.8094C178.156 26.1392 178.02 26.464 177.785 26.6939Z" fill="#E5CBBD"/>
<path d="M122.377 98.2954L116.04 101.167C115.818 101.792 115.543 102.356 115.23 102.862L126.704 140.445C126.713 140.474 126.721 140.504 126.727 140.534C126.871 141.172 127.256 141.716 127.811 142.066C128.366 142.416 129.024 142.528 129.664 142.384C130.304 142.24 130.85 141.856 131.199 141.303C131.55 140.749 131.663 140.093 131.519 139.455L122.377 98.2954Z" fill="#FCEBE6"/>
<path d="M127.305 48.343C124.285 48.343 121.828 50.7933 121.828 53.8054C121.828 56.8174 124.285 59.2677 127.305 59.2677C130.326 59.2677 132.782 56.8174 132.782 53.8054C132.782 50.7933 130.326 48.343 127.305 48.343Z" fill="white"/>
<path d="M168.924 16.434C166.652 16.0727 163.669 16.513 159.889 17.7679C157.122 18.6869 154.556 19.8449 152.292 21.1437L165.653 25.1993C164.959 21.8544 166.29 18.4585 168.924 16.434Z" fill="#E5DE9E"/>
<path d="M72.2386 133.428H63.3541L65.2497 136.903H71.9835L72.2386 133.428Z" fill="#898785"/>
<path d="M161.453 2.49878C142.683 2.49878 127.411 13.1521 127.411 26.2473C127.411 39.3419 142.682 49.9958 161.453 49.9958C180.223 49.9958 195.494 39.3424 195.494 26.2473C195.494 13.1521 180.223 2.49878 161.453 2.49878ZM185.583 22.4131L183.152 23.2202C183.186 24.6405 182.873 26.0569 182.217 27.3637C181.262 29.2678 179.683 30.7266 177.736 31.5402C176.229 34.6357 172.789 36.9951 166.956 38.9321C162.389 40.4489 157.954 41.1755 154.047 41.1755C147.115 41.1755 141.843 38.8891 140.433 34.6697C138.23 28.0709 146.429 19.6055 159.098 15.3975C164.926 13.462 169.096 13.2915 172.161 14.8648C172.865 14.6879 173.585 14.5974 174.311 14.5974C178.122 14.5974 181.493 17.0222 182.699 20.6315C182.709 20.6635 182.716 20.6965 182.726 20.7284L184.792 20.0423C185.3 19.8734 185.576 19.3231 185.406 18.8154C185.324 18.57 185.151 18.3706 184.919 18.2551C184.687 18.1397 184.423 18.1212 184.177 18.2027C183.52 18.4201 182.811 18.0672 182.592 17.4125C182.373 16.7579 182.728 16.0502 183.384 15.8323C184.266 15.539 185.209 15.6059 186.04 16.0202C186.871 16.4345 187.49 17.1472 187.784 18.0263C188.389 19.8409 187.402 21.8089 185.583 22.4131Z" fill="white"/>
<path d="M72.0496 139.402H66.0575L66.7099 142.414C66.7174 142.448 66.723 142.482 66.7275 142.517C66.8252 143.268 67.2105 143.936 67.8123 144.398C68.4147 144.86 69.1608 145.061 69.913 144.963C70.6656 144.865 71.3351 144.481 71.7981 143.881C72.2611 143.281 72.4625 142.537 72.3643 141.787L72.0496 139.402Z" fill="#D8B4A4"/>
<path d="M90.4259 225.895H98.1729V219.765H93.6395C93.2997 221.171 92.4504 223.668 90.4259 225.895Z" fill="#998675"/>
<path d="M76.4749 98.296L72.0858 118.059L74.4765 130.217L83.6135 102.844C83.3054 102.342 83.0328 101.785 82.8123 101.167L76.4749 98.296Z" fill="#FCEBE6"/>
<path d="M93.65 217.266H98.1735V172.847H88.6425C88.7488 177.393 89.4213 194.038 93.65 217.266Z" fill="#FCEBE6"/>
<path d="M166.867 28.1798L149.518 22.9138C144.517 26.4576 141.727 30.6326 142.811 33.88C144.512 38.9725 155.207 40.2009 166.165 36.5612C169.94 35.3073 172.594 33.8795 174.196 32.2343C171.176 32.1963 168.446 30.6391 166.867 28.1798Z" fill="#E5DE9E"/>
<path d="M100.678 217.266H105.202C109.437 194.004 110.105 177.374 110.21 172.847H100.678V217.266Z" fill="#FCEBE6"/>
<path d="M114.354 91.8336C116.142 93.4503 116.761 95.8552 116.639 98.15L121.822 95.8017L120.824 91.3074C120.753 91 118.945 83.5506 111.664 81.8429L110.923 81.6655C110.037 85.7061 105.652 88.3308 99.4252 88.3308C93.1986 88.3308 88.7999 85.7106 87.9135 81.6695L87.1934 81.8419C79.9059 83.5501 78.0974 91 78.0243 91.3163L77.0281 95.8017L82.2115 98.15C82.0907 95.8552 82.709 93.4503 84.4975 91.8336C85.0106 91.3698 85.8023 91.4088 86.2669 91.9201C86.7319 92.4313 86.6928 93.2214 86.1802 93.6847C84.524 95.182 84.4073 98.1305 85.1479 100.27C85.7181 101.917 86.7123 102.986 87.7426 103.06C88.37 103.105 88.8666 103.606 88.9036 104.233L89.279 110.597C89.2955 110.873 89.2193 111.146 89.063 111.375C80.7648 123.491 79.9089 162.816 79.8217 170.348H119.028C118.941 162.816 118.083 123.488 109.787 111.375C109.631 111.146 109.554 110.872 109.571 110.597L109.947 104.233C109.984 103.606 110.48 103.105 111.108 103.06C112.138 102.986 113.132 101.917 113.703 100.27C114.443 98.1305 114.326 95.1815 112.67 93.6842C112.158 93.2209 112.119 92.4308 112.584 91.9196C113.049 91.4093 113.842 91.3698 114.354 91.8336Z" fill="#BADFE8"/>
<path d="M100.678 219.765V225.895H108.426C106.402 223.668 105.553 221.171 105.212 219.765H100.678Z" fill="#998675"/>
<path d="M161.453 0C141.301 0 124.906 11.7743 124.906 26.2473C124.906 40.7203 141.301 52.4946 161.453 52.4946C181.605 52.4946 198 40.7203 198 26.2473C197.999 11.7743 181.605 0 161.453 0ZM161.453 49.9953C142.683 49.9953 127.411 39.3419 127.411 26.2468C127.411 13.1521 142.682 2.49829 161.453 2.49829C180.223 2.49829 195.494 13.1516 195.494 26.2468C195.494 39.3419 180.223 49.9953 161.453 49.9953Z" fill="#1C1B1A"/>
<path d="M83.0869 30.8365C87.4885 30.8365 91.0694 27.2652 91.0694 22.8753C91.0694 18.4855 87.4885 14.9142 83.0869 14.9142C78.6852 14.9142 75.1043 18.4855 75.1043 22.8753C75.1043 27.2652 78.6852 30.8365 83.0869 30.8365ZM83.0869 17.413C86.107 17.413 88.5639 19.8633 88.5639 22.8753C88.5639 25.8874 86.107 28.3377 83.0869 28.3377C80.0667 28.3377 77.6098 25.8874 77.6098 22.8753C77.6098 19.8633 80.0667 17.413 83.0869 17.413Z" fill="#1C1B1A"/>
<path d="M127.305 45.8442C122.904 45.8442 119.323 49.4155 119.323 53.8054C119.323 58.1953 122.904 61.7665 127.305 61.7665C131.707 61.7665 135.288 58.1953 135.288 53.8054C135.288 49.4155 131.707 45.8442 127.305 45.8442ZM127.305 59.2672C124.285 59.2672 121.828 56.8169 121.828 53.8049C121.828 50.7928 124.285 48.3425 127.305 48.3425C130.326 48.3425 132.782 50.7928 132.782 53.8049C132.782 56.8174 130.326 59.2672 127.305 59.2672Z" fill="#1C1B1A"/>
<path d="M111.882 28.5182C117.74 28.5182 122.507 23.765 122.507 17.9218C122.507 12.0786 117.741 7.32544 111.882 7.32544C106.024 7.32544 101.257 12.0786 101.257 17.9218C101.257 23.765 106.024 28.5182 111.882 28.5182ZM111.882 9.82473C116.359 9.82473 120.001 13.4575 120.001 17.9223C120.001 22.3871 116.359 26.0199 111.882 26.0199C107.405 26.0199 103.763 22.3871 103.763 17.9223C103.763 13.457 107.405 9.82473 111.882 9.82473Z" fill="#1C1B1A"/>
<path d="M61.246 43.2365C64.5637 43.2365 67.2627 40.5448 67.2627 37.2359C67.2627 33.927 64.5637 31.2354 61.246 31.2354C57.9282 31.2354 55.2292 33.927 55.2292 37.2359C55.2292 40.5448 57.9282 43.2365 61.246 43.2365ZM61.246 33.7346C63.1822 33.7346 64.7572 35.3054 64.7572 37.2364C64.7572 39.1675 63.1822 40.7382 61.246 40.7382C59.3097 40.7382 57.7347 39.1675 57.7347 37.2364C57.7347 35.3054 59.3097 33.7346 61.246 33.7346Z" fill="#1C1B1A"/>
<path d="M173.325 24.6545C173.216 24.5141 173.06 24.2512 172.934 23.8749C172.808 23.4981 172.776 23.1937 172.778 23.0163C173.116 22.693 173.258 22.1922 173.1 21.719C172.881 21.0643 172.173 20.7094 171.515 20.9278C170.328 21.3216 169.943 22.8229 170.556 24.664C171.08 26.2303 172.036 27.1668 173.041 27.1668C173.216 27.1668 173.392 27.1383 173.568 27.0804C174.224 26.8625 174.58 26.1553 174.362 25.5006C174.204 25.0279 173.79 24.7115 173.325 24.6545Z" fill="#1C1B1A"/>
<path d="M176.196 19.9523C176.196 19.6224 176.066 19.3026 175.83 19.0677C175.364 18.6029 174.523 18.6029 174.056 19.0677C173.826 19.3026 173.691 19.6224 173.691 19.9523C173.691 20.2821 173.826 20.602 174.056 20.8368C174.292 21.0667 174.613 21.2017 174.943 21.2017C175.274 21.2017 175.595 21.0667 175.83 20.8368C176.066 20.602 176.196 20.2826 176.196 19.9523Z" fill="#1C1B1A"/>
<path d="M176.016 24.9299C175.78 25.1598 175.65 25.4846 175.65 25.8095C175.65 26.1393 175.78 26.4641 176.016 26.694C176.246 26.9289 176.572 27.0588 176.903 27.0588C177.228 27.0588 177.554 26.9289 177.785 26.694C178.02 26.4641 178.155 26.1393 178.155 25.8095C178.155 25.4846 178.02 25.1598 177.785 24.9299C177.319 24.4651 176.482 24.4651 176.016 24.9299Z" fill="#1C1B1A"/>
<path d="M186.04 16.0202C185.209 15.6059 184.266 15.5389 183.384 15.8323C182.728 16.0507 182.373 16.7578 182.592 17.4125C182.811 18.0672 183.52 18.42 184.177 18.2026C184.423 18.1212 184.687 18.1397 184.919 18.2551C185.151 18.3711 185.325 18.57 185.406 18.8154C185.576 19.3231 185.3 19.8733 184.791 20.0423L182.726 20.7284C182.715 20.6964 182.709 20.6635 182.699 20.6315C181.493 17.0222 178.122 14.5974 174.31 14.5974C173.585 14.5974 172.865 14.6884 172.161 14.8648C169.096 13.2915 164.926 13.4619 159.098 15.3975C146.429 19.606 138.23 28.0709 140.433 34.6697C141.842 38.8891 147.115 41.1755 154.047 41.1755C157.954 41.1755 162.389 40.4489 166.956 38.9321C172.789 36.995 176.229 34.6357 177.735 31.5402C179.683 30.7266 181.262 29.2678 182.217 27.3637C182.873 26.0568 183.186 24.6405 183.152 23.2202L185.583 22.4131C187.402 21.8089 188.389 19.8409 187.784 18.0262C187.49 17.1472 186.871 16.435 186.04 16.0202ZM159.89 17.7679C163.669 16.513 166.652 16.0727 168.924 16.434C166.29 18.458 164.96 21.8539 165.654 25.1993L152.293 21.1437C154.557 19.8454 157.123 18.6869 159.89 17.7679ZM166.165 36.5613C155.207 40.201 144.512 38.9726 142.81 33.8801C141.726 30.6326 144.516 26.4576 149.518 22.9139L166.867 28.1798C168.446 30.6391 171.175 32.1964 174.195 32.2343C172.594 33.8796 169.94 35.3074 166.165 36.5613ZM179.976 26.2457C179.219 27.7555 177.917 28.881 176.311 29.4142C175.66 29.6306 174.986 29.7401 174.308 29.7401C171.576 29.7401 169.16 28.0019 168.296 25.4152C167.192 22.1083 168.991 18.5225 172.307 17.4215C172.957 17.2051 173.632 17.0957 174.31 17.0957C177.042 17.0957 179.457 18.8338 180.322 21.4206C180.856 23.0223 180.734 24.736 179.976 26.2457Z" fill="#1C1B1A"/>
<path d="M103.647 68.2749C103.647 66.8066 101.912 65.7811 99.4262 65.7811C96.9408 65.7811 95.2055 66.8066 95.2055 68.2749C95.2055 68.9651 95.7662 69.5243 96.4582 69.5243C97.0315 69.5243 97.515 69.1405 97.6638 68.6162C97.9054 68.4803 98.5152 68.2804 99.4267 68.2804C100.338 68.2804 100.948 68.4803 101.189 68.6162C101.338 69.1405 101.821 69.5248 102.395 69.5248C103.086 69.5243 103.647 68.9651 103.647 68.2749Z" fill="#1C1B1A"/>
<path d="M94.8276 63.0018C95.1584 63.0018 95.4791 62.8669 95.7146 62.637C95.9451 62.4021 96.0804 62.0823 96.0804 61.7524C96.0804 61.4226 95.9451 61.1028 95.7146 60.8679C95.2486 60.4031 94.4117 60.4031 93.9407 60.8679C93.7052 61.1028 93.5749 61.4226 93.5749 61.7524C93.5749 62.0823 93.7052 62.4021 93.9407 62.637C94.1762 62.8664 94.4969 63.0018 94.8276 63.0018Z" fill="#1C1B1A"/>
<path d="M104.028 63.0018C104.354 63.0018 104.679 62.8669 104.91 62.637C105.145 62.4021 105.276 62.0823 105.276 61.7524C105.276 61.4226 105.145 61.1028 104.91 60.8679C104.444 60.4031 103.607 60.4031 103.141 60.8679C102.905 61.1028 102.775 61.4226 102.775 61.7524C102.775 62.0823 102.905 62.4021 103.141 62.637C103.371 62.8664 103.697 63.0018 104.028 63.0018Z" fill="#1C1B1A"/>
<path d="M41.7802 62.9015C41.7802 61.4617 40.092 60.4562 37.6747 60.4562C35.2579 60.4562 33.5697 61.4617 33.5697 62.9015C33.5697 63.5917 34.1304 64.1509 34.8224 64.1509C35.3882 64.1509 35.8667 63.7766 36.0221 63.2623C36.2576 63.1359 36.8314 62.955 37.6747 62.955C38.5186 62.955 39.0923 63.1364 39.3278 63.2623C39.4832 63.7766 39.9612 64.1509 40.5275 64.1509C41.2195 64.1509 41.7802 63.5917 41.7802 62.9015Z" fill="#1C1B1A"/>
<path d="M33.8187 56.1647C34.0543 55.9298 34.1845 55.61 34.1845 55.2801C34.1845 54.9503 34.0543 54.6305 33.8187 54.3956C33.3527 53.9308 32.5159 53.9308 32.0499 54.3956C31.8143 54.6305 31.6841 54.9503 31.6841 55.2801C31.6841 55.61 31.8143 55.9298 32.0499 56.1647C32.2804 56.3946 32.6061 56.5295 32.9368 56.5295C33.2625 56.5295 33.5882 56.3946 33.8187 56.1647Z" fill="#1C1B1A"/>
<path d="M42.4176 56.5295C42.7433 56.5295 43.069 56.3946 43.2995 56.1647C43.5351 55.9298 43.6704 55.61 43.6704 55.2801C43.6704 54.9503 43.5351 54.6305 43.2995 54.3956C42.8335 53.9308 41.9967 53.9308 41.5307 54.3956C41.2951 54.6305 41.1649 54.9503 41.1649 55.2801C41.1649 55.61 41.2951 55.9348 41.5307 56.1647C41.7612 56.3946 42.0869 56.5295 42.4176 56.5295Z" fill="#1C1B1A"/>
<path d="M123.27 90.7614C123.204 90.4751 121.968 85.2921 117.533 81.8987C124.286 74.11 116.284 57.4846 115.05 55.0472C114.987 51.1481 113.726 47.9937 111.298 45.6683C106.867 41.4248 100.132 41.5038 99.4267 41.5243C98.7257 41.5038 91.9869 41.4234 87.5547 45.6683C85.1263 47.9937 83.8646 51.1476 83.8024 55.0467C82.5682 57.4846 74.5642 74.112 81.3185 81.9007C76.8832 85.2951 75.6475 90.4761 75.5809 90.7669L70.8806 111.93L65.4136 84.1311C65.3093 83.2081 64.1237 75.2225 54.1113 72.6077L45.3125 69.5837V66.0114C47.8105 63.1358 49.3964 58.8824 49.3964 54.1412L49.3954 43.1525C49.3999 43.0411 49.4771 40.3993 47.2848 38.126C45.2478 36.014 42.0147 34.943 37.6752 34.943C33.3352 34.943 30.1021 36.014 28.0651 38.126C25.8728 40.3993 25.9495 43.0411 25.953 43.1035V54.1407C25.953 58.8819 27.539 63.1348 30.037 66.0104V69.5837L21.2386 72.6077C11.2262 75.2225 10.0401 83.2081 9.93585 84.1311L0.534718 131.938C0.513171 132.047 0.506156 132.158 0.514674 132.269L0.943114 138.115L0.500142 141.464C0.315737 142.877 0.694569 144.276 1.56548 145.405C2.43689 146.534 3.69666 147.257 5.11276 147.44C5.34728 147.471 5.58179 147.486 5.8143 147.486C6.98688 147.486 8.12086 147.103 9.06494 146.378C10.1824 145.52 10.903 144.285 11.0989 142.895L12.0309 138.591L15.2044 132.776C15.265 132.665 15.3081 132.545 15.3332 132.421L19.9248 109.274V139.331C19.9248 139.333 19.9258 139.335 19.9258 139.337C19.9258 139.339 19.9248 139.341 19.9248 139.343V219.164C19.368 219.475 18.8609 219.862 18.4119 220.337C15.95 222.938 16.1575 227.043 16.1675 227.216C16.2056 227.877 16.7543 228.394 17.4183 228.394H33.9315C34.6235 228.394 35.1842 227.834 35.1842 227.144V219.565L37.6752 171.735L40.1662 219.565V227.144C40.1662 227.834 40.7269 228.394 41.4189 228.394H57.9322C58.5961 228.394 59.1443 227.877 59.1829 227.216C59.1929 227.043 59.4009 222.938 56.9385 220.337C56.4895 219.862 55.9819 219.474 55.4252 219.164V139.343C55.4252 139.341 55.4247 139.339 55.4247 139.337C55.4247 139.335 55.4252 139.333 55.4252 139.331V109.274L60.0167 132.421C60.0413 132.545 60.0849 132.665 60.1455 132.776L63.319 138.591L64.251 142.895C64.4469 144.285 65.1675 145.52 66.285 146.378C67.2296 147.103 68.363 147.486 69.5356 147.486C69.7681 147.486 70.0026 147.471 70.2367 147.44C71.6528 147.257 72.9125 146.534 73.7844 145.405C74.6559 144.276 75.0342 142.877 74.8498 141.462L74.4284 138.274L85.5738 104.885C85.8589 105.061 86.1526 105.214 86.4603 105.322L86.7554 110.326C77.4159 124.717 77.3082 169.674 77.3082 171.597C77.3082 172.287 77.8689 172.847 78.5609 172.847H86.137C86.2428 177.447 86.9268 194.621 91.3375 218.537C91.1941 219.407 90.3067 223.639 86.3164 226.079C85.8384 226.371 85.6134 226.945 85.7652 227.483C85.9176 228.022 86.4101 228.393 86.9709 228.393H111.883C112.443 228.393 112.936 228.021 113.088 227.483C113.241 226.945 113.015 226.371 112.537 226.079C108.579 223.659 107.665 219.407 107.516 218.534C111.921 194.648 112.609 177.472 112.716 172.847H120.291C120.983 172.847 121.544 172.287 121.544 171.597C121.544 169.675 121.436 124.718 112.098 110.326L112.393 105.322C112.685 105.219 112.964 105.075 113.237 104.911L124.294 141.131C124.593 142.399 125.366 143.48 126.473 144.177C127.275 144.683 128.185 144.944 129.112 144.944C129.479 144.944 129.848 144.903 130.215 144.82C131.508 144.529 132.61 143.753 133.318 142.636C134.025 141.518 134.254 140.192 133.963 138.909L123.27 90.7614ZM100.678 44.0556C102.682 44.186 106.762 44.7892 109.562 47.4709C111.543 49.3675 112.547 52.0197 112.547 55.3531C112.547 55.5545 112.596 55.7534 112.689 55.9318C112.785 56.1152 121.929 73.8106 115.395 80.5564C114.453 80.0801 113.408 79.6853 112.243 79.4119L105.169 77.7193V72.3749C107.828 69.9475 109.574 65.8875 109.574 61.2952V58.2697H109.573C109.573 57.681 109.157 57.1562 108.556 57.0423C108.477 57.0273 100.678 55.491 100.678 50.5219V44.0556H100.678ZM103.625 79.9197L108.494 81.0846C107.863 83.9597 104.384 85.8323 99.4257 85.8323C94.4678 85.8323 90.9897 83.9597 90.3598 81.0841L95.2275 79.9192C95.7907 79.7843 96.1881 79.282 96.1881 78.7043V74.038C97.2058 74.4933 98.2937 74.7442 99.4257 74.7442C100.558 74.7442 101.647 74.4938 102.664 74.038V78.7043C102.664 79.2825 103.062 79.7848 103.625 79.9197ZM99.4257 54.539C101.409 57.4101 105.234 58.753 107.069 59.2537V61.2957C107.069 67.3333 103.64 72.2459 99.4257 72.2459C95.211 72.2459 91.7824 67.3338 91.7824 61.2957V59.2537C93.6175 58.753 97.4429 57.4101 99.4257 54.539ZM86.1626 55.9318C86.2558 55.7534 86.3049 55.5545 86.3049 55.3531C86.3049 52.0252 87.3056 49.3765 89.2789 47.4804C92.066 44.8032 96.1625 44.193 98.173 44.0581V50.5224C98.173 55.4635 90.3959 57.0233 90.2942 57.0428C89.6938 57.1572 89.2774 57.6815 89.2779 58.2702H89.2764V61.2957C89.2764 65.888 91.0233 69.9485 93.6821 72.3759V77.7198L86.6146 79.4109C85.4475 79.6843 84.4012 80.0801 83.4577 80.5569C76.9213 73.8122 86.0669 56.1152 86.1626 55.9318ZM47.85 73.0995L47.5875 79.1451L42.2643 76.7267L44.6806 72.01L47.85 73.0995ZM37.6747 80.1931L32.5419 70.1744V68.2234C34.0934 69.2374 35.8347 69.8086 37.6747 69.8086C39.5142 69.8086 41.2556 69.2374 42.8065 68.2239V70.1744L37.6747 80.1931ZM28.458 43.0676C28.4565 42.9966 28.4419 41.3104 29.9087 39.8191C31.4611 38.2419 34.0738 37.4418 37.6752 37.4418C41.2761 37.4418 43.8888 38.2419 45.4408 39.8191C46.908 41.3104 46.8929 42.9961 46.8914 43.104V48.4954C45.5239 47.9552 44.8309 46.4204 44.8309 43.9051C44.8309 43.215 44.2702 42.6558 43.5782 42.6558C43.5777 42.6558 43.5777 42.6558 43.5777 42.6558H43.5772C42.8851 42.6558 42.3244 43.215 42.3244 43.9051C42.3244 44.6853 40.4703 45.8642 37.6752 45.8642C34.8801 45.8642 33.0255 44.6848 33.0255 43.9051C33.0255 43.215 32.4648 42.6558 31.7728 42.6558H31.7723H31.7718C31.0797 42.6558 30.519 43.215 30.519 43.9051C30.519 46.4204 29.825 47.9552 28.458 48.4954V43.0676ZM28.4585 54.1412V51.0877C30.4804 50.6854 31.9156 49.2925 32.588 47.0986C33.8659 47.8882 35.6463 48.3635 37.6752 48.3635C39.7042 48.3635 41.4846 47.8887 42.7619 47.0991C43.4343 49.2945 44.867 50.6959 46.8914 51.0967V54.1417C46.8914 61.4032 42.7574 67.3108 37.6752 67.3108C32.5931 67.3103 28.4585 61.4027 28.4585 54.1412ZM30.6693 72.01L33.0856 76.7267L27.7625 79.1446L27.4999 73.099L30.6693 72.01ZM8.6395 142.414C8.63199 142.448 8.62647 142.483 8.62196 142.517C8.52425 143.268 8.1389 143.936 7.53708 144.398C6.93526 144.86 6.19063 145.06 5.43597 144.963C4.68382 144.865 4.01435 144.481 3.55084 143.881C3.08782 143.281 2.88638 142.537 2.98409 141.789L3.29978 139.402H9.29193L8.6395 142.414ZM10.0997 136.903H3.36643L3.11187 133.428H11.9964L10.0997 136.903ZM13.0747 130.929H3.28625L12.4058 84.5564C12.4138 84.517 12.4198 84.472 12.4238 84.432C12.4388 84.2786 12.6613 82.305 14.13 80.1411L19.8822 96.6106L13.0747 130.929ZM16.0332 77.9941C17.4097 76.7857 19.3029 75.6907 21.9161 75.0146C21.9477 75.0066 21.9788 74.9971 22.0098 74.9866L25.029 73.9486L25.3401 81.1041C25.3582 81.5189 25.5817 81.8977 25.937 82.1151C26.1369 82.2376 26.3639 82.2995 26.5919 82.2995C26.7688 82.2995 26.9457 82.2621 27.111 82.1871L34.2271 78.9542L36.422 83.2381V138.082H22.4298V96.5206C22.4298 96.4917 22.4237 96.4647 22.4217 96.4362C22.4192 96.3982 22.4172 96.3602 22.4112 96.3217C22.4032 96.2723 22.3907 96.2253 22.3766 96.1773C22.3701 96.1548 22.3681 96.1318 22.3601 96.1088L16.0332 77.9941ZM32.6782 225.895H18.7166C18.8304 224.793 19.1821 223.157 20.241 222.044C21.0482 221.195 22.1411 220.783 23.5828 220.783H32.6782V225.895ZM38.927 147.603L38.9184 147.603C38.8859 146.972 38.3853 146.454 37.7388 146.42C37.0423 146.38 36.4585 146.914 36.423 147.603L32.7419 218.285H22.4298V140.58H52.9197V218.285H42.608L38.927 147.603ZM56.6328 225.895H42.6712V220.783H51.7666C53.2083 220.783 54.3012 221.196 55.1085 222.044C56.1678 223.157 56.5196 224.794 56.6328 225.895ZM52.9893 96.1093C52.9813 96.1318 52.9793 96.1553 52.9728 96.1783C52.9592 96.2258 52.9462 96.2728 52.9382 96.3222C52.9317 96.3607 52.9297 96.3982 52.9272 96.4367C52.9257 96.4652 52.9192 96.4922 52.9192 96.5211V138.082H38.928V83.2376L41.1223 78.9537L48.2384 82.1866C48.4038 82.2616 48.5811 82.299 48.7575 82.299C48.9855 82.299 49.2125 82.2371 49.4125 82.1146C49.7672 81.8972 49.9912 81.5184 50.0093 81.1036L50.3205 73.9486L53.3396 74.9861C53.3706 74.9966 53.4017 75.0061 53.4333 75.0141C56.0465 75.6902 57.9402 76.7857 59.3162 77.9936L52.9893 96.1093ZM62.2747 130.929L55.4677 96.6106L61.2204 80.1411C62.6886 82.3045 62.9106 84.2761 62.9256 84.4265C62.9296 84.47 62.9356 84.514 62.9442 84.5569L72.0637 130.929H62.2747V130.929ZM65.2497 136.903L63.3535 133.428H72.2381L71.9835 136.903H65.2497ZM71.7986 143.881C71.3356 144.481 70.6661 144.865 69.9134 144.963C69.1613 145.061 68.4152 144.86 67.8128 144.398C67.211 143.936 66.8257 143.268 66.728 142.517C66.7234 142.483 66.7174 142.448 66.7104 142.414L66.058 139.402H72.0501L72.3653 141.786C72.463 142.537 72.2616 143.281 71.7986 143.881ZM74.4765 130.217L72.0857 118.059L76.4748 98.2958L82.8128 101.167C83.0327 101.785 83.3058 102.342 83.614 102.844L74.4765 130.217ZM98.173 225.895H90.4259C92.4499 223.668 93.2993 221.17 93.6395 219.765H98.173V225.895ZM98.173 217.266H93.6495C89.4207 194.037 88.7483 177.392 88.6415 172.847H98.1724V217.266H98.173ZM108.426 225.895H100.678V219.765H105.212C105.553 221.171 106.402 223.669 108.426 225.895ZM105.203 217.266H100.679V172.847H110.211C110.105 177.373 109.437 194.004 105.203 217.266ZM112.671 93.685C114.327 95.1823 114.444 98.1309 113.704 100.27C113.133 101.918 112.139 102.987 111.109 103.06C110.481 103.105 109.985 103.607 109.948 104.233L109.572 110.597C109.555 110.873 109.632 111.147 109.788 111.375C118.084 123.489 118.942 162.816 119.029 170.349H79.8227C79.9099 162.817 80.7658 123.492 89.064 111.375C89.2203 111.147 89.2965 110.874 89.2799 110.597L88.9046 104.233C88.8675 103.607 88.3709 103.105 87.7436 103.06C86.7133 102.987 85.7191 101.918 85.1489 100.27C84.4083 98.1314 84.525 95.1828 86.1811 93.6855C86.6938 93.2222 86.7329 92.4321 86.2678 91.9209C85.8033 91.4101 85.0116 91.3706 84.4985 91.8344C82.71 93.4511 82.0917 95.856 82.2124 98.1509L77.0291 95.8025L78.0252 91.3172C78.0984 91.0008 79.9069 83.5514 87.1944 81.8428L87.9144 81.6703C88.8014 85.7114 93.1995 88.3316 99.4262 88.3316C105.652 88.3316 110.037 85.7069 110.924 81.6663L111.665 81.8438C118.946 83.5509 120.754 91.0003 120.825 91.3082L121.823 95.8025L116.64 98.1509C116.761 95.856 116.143 93.4511 114.355 91.8344C113.842 91.3706 113.05 91.4101 112.586 91.9209C112.12 92.4311 112.159 93.2212 112.671 93.685ZM131.199 141.302C130.849 141.855 130.303 142.239 129.664 142.384C129.024 142.528 128.366 142.415 127.811 142.066C127.256 141.716 126.871 141.172 126.727 140.534C126.72 140.504 126.713 140.474 126.704 140.445L115.23 102.862C115.543 102.356 115.818 101.792 116.04 101.167L122.377 98.2953L131.519 139.455C131.663 140.093 131.55 140.749 131.199 141.302Z" fill="#1C1B1A"/>
</svg>
