<svg width="257" height="168" viewBox="0 0 257 168" fill="none" xmlns="http://www.w3.org/2000/svg">
<rect width="257" height="168" fill="black" fill-opacity="0"/>
<rect width="257" height="168" fill="black" fill-opacity="0"/>
<rect width="162.101" height="164.08" fill="black" fill-opacity="0" transform="translate(29.6405 3.91968)"/>
<rect width="162.101" height="164.08" fill="black" fill-opacity="0" transform="translate(29.6405 3.91968)"/>
<rect width="20.8791" height="11.7998" fill="black" fill-opacity="0" transform="translate(135.112 68.0609)"/>
<path d="M135.655 78.8264C137.658 76.6827 139.869 74.7116 142.344 73.122C144.515 71.7275 149.839 68.9009 151.189 69.2179C152.836 69.6042 149.933 71.3773 149.562 71.6248C148.364 72.4241 147.14 73.1812 145.892 73.8978C143.005 75.5562 139.999 76.9429 136.906 78.175C136.384 78.3833 136.603 79.2351 137.143 79.0305C139.843 78.006 142.552 77.0075 145.301 76.1206C146.753 75.6521 148.216 75.212 149.693 74.8251C150.304 74.6651 151.038 74.3662 151.669 74.3397C152.001 74.2672 152.332 74.1948 152.664 74.1224C155.991 73.5941 154.427 76.2727 153.386 76.7219C151.325 78.5451 146.782 78.7455 144.277 78.8789C141.361 79.0341 138.436 78.9242 135.518 79.0468C134.996 79.0691 134.991 79.8714 135.518 79.8606C139.74 79.7772 144.047 80.0628 148.226 79.3245C150.179 78.9798 155.646 77.8798 155.972 75.1233C156.301 72.3511 152.231 73.3297 150.947 73.6346C146.15 74.7731 141.536 76.507 136.907 78.1756C136.986 78.4606 137.065 78.7461 137.143 79.0311C139.235 78.2306 155.517 71.2053 153.093 68.4729C151.785 66.9986 146.462 69.9001 145.015 70.6191C141.219 72.5056 137.904 75.1148 135.194 78.3664C134.929 78.6827 135.364 79.1373 135.655 78.8264Z" fill="#B65454"/>
<rect width="162.101" height="164.08" fill="black" fill-opacity="0" transform="translate(29.6405 3.91968)"/>
<path d="M82.6667 114.83C83.0406 115.475 83.4138 116.12 83.7877 116.765C83.9746 117.087 84.1658 117.415 84.4374 117.671C84.6637 117.884 84.9371 118.038 85.2148 118.178C86.8397 118.993 88.6988 119.335 90.5082 119.153C89.9268 118.414 89.2378 117.76 88.4707 117.217C88.1966 117.023 87.9111 116.842 87.6643 116.613C87.4005 116.369 86.4743 114.372 86.2214 114.116C85.3818 113.268 84.0442 112.359 82.8808 112.628" fill="#EFF4F3"/>
<path d="M90.6044 131.276C91.7199 133.439 90.5384 137.25 89.0272 138.026C87.5167 138.801 85.3872 137.677 84.2716 135.515C83.1561 133.352 83.4767 130.97 84.9873 130.193C86.4985 129.417 89.4888 129.113 90.6044 131.276Z" fill="#9E846F"/>
<rect width="162.101" height="162.918" fill="black" fill-opacity="0" transform="translate(29.6405 3.91968)"/>
<path d="M103.143 142.042C103.143 142.042 89.6734 150.839 79.0877 152.687C79.0877 152.687 72.7865 144.116 70.242 144.447C67.6975 144.779 70.9909 161.959 74.6147 162.192C78.239 162.425 99.8936 167.588 115.887 158.698L103.143 142.042Z" fill="#E4EAE9"/>
<rect width="162.101" height="162.918" fill="black" fill-opacity="0" transform="translate(29.6405 3.91968)"/>
<path d="M97.0545 86.5731C97.0545 86.5731 108.626 82.6823 117.641 84.2567L101.735 95.6142L97.0545 86.5731Z" fill="#9E846F"/>
<rect width="162.101" height="162.918" fill="black" fill-opacity="0" transform="translate(29.6405 3.91968)"/>
<rect width="162.101" height="162.918" fill="black" fill-opacity="0" transform="translate(29.6405 3.91968)"/>
<rect width="78.9857" height="91.6657" fill="black" fill-opacity="0" transform="translate(29.6405 65.2667)"/>
<path d="M69.6352 72.612C69.6352 72.612 55.9661 66.9903 36.8832 81.6283C19.9866 94.5892 37.1149 92.178 43.3642 89.8199C47.6037 88.2201 65.5844 75.983 66.3944 74.9175C67.2051 73.852 69.6352 72.612 69.6352 72.612Z" fill="#B0977E"/>
<path d="M108.626 100.483C108.626 100.483 105.236 91.5404 98.3086 86.2031C98.3086 86.2031 95.7992 67.0602 86.3963 65.4465C76.994 63.8328 63.1391 73.3357 57.277 83.7345C51.415 94.1333 41.1131 128.918 51.5928 131.069C62.0726 133.22 61.0526 92.5927 61.0526 92.5927C61.0526 92.5927 60.6908 114.192 79.7205 111.705C79.7205 111.705 68.2384 129.972 74.1252 133.121C80.0121 136.269 85.5185 113.498 85.5185 113.498L89.0708 112.96C89.0708 112.96 85.6957 151.04 95.288 156.743C95.288 156.743 99.0182 160.474 98.1301 134.834L108.626 120.131V100.483H108.626Z" fill="#B0977E"/>
<path d="M68.8198 109.992C68.8198 109.992 80.7145 115.899 93.2602 96.9061C93.2602 96.9061 92.1604 107.549 79.7206 111.705C79.7212 111.705 74.8585 113.065 68.8198 109.992Z" fill="#9E846F"/>
<path d="M61.0526 74.7683C61.0526 74.7683 42.4615 76.7587 35.7525 86.7802C31.4881 93.1505 61.0526 74.7683 61.0526 74.7683Z" fill="#937765"/>
<path d="M55.7937 97.7024C55.7937 97.7024 47.2656 122.95 52.6667 125.362C58.0678 127.773 55.7937 97.7024 55.7937 97.7024Z" fill="#937765"/>
<path d="M180.037 116.503C179.718 117.346 177.458 125.539 178.488 126.179C179.847 126.974 180.599 121.689 180.913 120.784C181.141 121.799 181.423 122.444 182.245 123.858C182.747 124.719 184.388 127.94 185.222 127.583C186.11 127.222 185.069 124.945 184.337 123.152C184.108 122.593 183.603 121.385 183.42 120.844C184.374 122.633 187.034 126.962 188.046 126.023C189.023 125.119 185.717 120.515 184.7 119.288C186.144 120.789 189.534 125.559 190.619 124.333C191.194 123.674 187.389 119.643 186.632 118.627C187.462 119.067 190.791 122.051 191.603 120.924C192.716 119.287 186.816 116.333 185.702 115.957C182.104 114.744 179.934 113.769 180.037 116.503Z" fill="#EDD4CD"/>
<rect width="115.604" height="162.918" fill="black" fill-opacity="0" transform="translate(72.2444 3.91968)"/>
<path d="M134.062 78.4407C134.062 78.4407 159.695 83.7201 183.51 114.891C183.51 114.891 184.102 118.618 179.227 118.618C179.227 118.618 165.421 104.557 150.58 103.635L134.062 78.4407Z" fill="#EFF4F3"/>
<path d="M123.536 80.0465C123.536 80.0465 119.01 79.9572 103.337 91.3629C103.337 91.3629 104.608 92.9887 105.871 95.0679C107.746 98.1522 108.596 100.433 108.596 100.433C108.596 100.433 106.918 110.18 105.71 119.823C105.71 119.823 97.5984 126.54 96.7357 133.773C95.873 141.006 92.7284 166.892 136.052 166.838C141.725 166.831 152.399 164.35 156.792 156.677C163.005 145.827 167.715 94.7503 131.596 78.4401L122.534 80.1993" fill="#EFF4F3"/>
<path d="M120.78 79.4495C120.78 79.4495 118.153 79.6723 119.477 82.4873C119.477 82.4873 116.064 82.1082 116.895 85.2547C116.895 85.2547 112.46 84.2526 114.512 88.9693C114.512 88.9693 110.701 88.9633 113.125 92.5927C113.125 92.5927 109.233 94.169 112.463 96.9696C112.463 96.9696 108.863 99.7001 113.077 102.016C113.077 102.016 110.193 106.106 115.338 106.884C115.338 106.884 113.851 111.602 118.364 110.103C118.364 110.103 118.547 114.754 122.707 112.439C122.707 112.439 124.401 116.145 127.013 113.315C127.013 113.315 130 116.833 132.134 112.972C132.134 112.972 136.94 115.498 137.346 111.544C137.346 111.544 141.4 113.183 140.882 109.662C140.882 109.662 145.946 111.109 144.461 105.946C144.461 105.946 148.798 105.542 146.141 101.823C146.141 101.823 150.653 99.3832 146.415 96.9696C146.415 96.9696 150.029 92.5034 145.051 91.3213C145.051 91.3213 148.295 87.2608 142.915 87.0706C142.915 87.0706 145.241 82.7391 139.791 82.963C139.791 82.963 141.076 79.8962 137.346 80.6001C137.346 80.6001 138.187 77.9734 135.43 77.4669L134.719 79.4434L137.346 82.2458L140.291 90.8764L137.346 101.299L124.908 103.365L117.641 92.9634V87.0712L122.534 80.1999L120.78 79.4495Z" fill="#B65454"/>
<path d="M124.189 79.5492C124.189 79.5492 114.252 84.9656 113.372 96.1251C112.586 106.093 119.623 116.257 135.784 111.1C151.944 105.944 146.957 89.1843 135.113 79.3022L124.189 79.5492Z" fill="#CE6D6E"/>
<path d="M136.319 85.2547C136.319 88.9952 134.517 92.9543 129.41 92.9929C122.894 93.0431 121.582 88.3088 121.582 84.5677C121.582 80.8265 124.142 78.4407 128.489 78.4407C132.835 78.4407 136.319 81.5141 136.319 85.2547Z" fill="#EFF4F3"/>
<rect width="115.604" height="86.0823" fill="black" fill-opacity="0" transform="translate(72.2444 3.91968)"/>
<rect width="13.9492" height="10.3171" fill="black" fill-opacity="0" transform="translate(72.2444 35.6328)"/>
<path d="M85.1319 45.9499C84.1259 45.6789 83.1192 45.4084 82.1132 45.1373C79.7756 44.5083 77.4078 43.8672 75.3134 42.6549C74.2166 42.0198 73.1736 41.1933 72.6153 40.0572C72.0569 38.921 72.0938 37.425 72.9686 36.5092C74.0871 35.3386 76.0012 35.5258 77.5493 36.0063C80.8966 37.0447 83.9341 39.0556 86.1936 41.73" fill="#E5C6BE"/>
<rect width="8.27686" height="3.06218" fill="black" fill-opacity="0" transform="translate(74.4074 38.4744)"/>
<path d="M74.6449 39.1468C75.8923 39.5694 77.1664 39.8858 78.4198 40.2902C79.6618 40.6911 80.8869 41.2465 82.1585 41.5254C82.6171 41.6262 82.8966 41.0153 82.4815 40.7605C80.2976 39.4191 77.2698 38.717 74.7356 38.4761C74.3333 38.4381 74.2982 39.0297 74.6449 39.1468Z" fill="#B7837D"/>
<path d="M130.99 89.5379C130.99 89.5379 124.292 92.5921 121.963 83.03C118.857 70.281 97.4405 68.8406 88.3201 58.1447C81.1222 49.7031 72.0599 27.5044 97.8519 12.1166C123.644 -3.27065 157.006 5.16007 168.22 19.6888C179.435 34.2175 172.778 52.1729 159.326 60.5807C148.362 67.4339 136.37 71.6532 135.139 80.9243C134.085 88.8624 130.99 89.5379 130.99 89.5379Z" fill="#EDD4CD"/>
<rect width="8.78736" height="14.5962" fill="black" fill-opacity="0" transform="translate(113.833 19.0634)"/>
<path d="M121.517 19.2892C121.618 21.1045 121.656 22.976 121.531 24.7919C121.46 25.8309 121.414 27.2822 120.16 27.7392C119.711 27.9028 118.894 27.6951 118.421 27.6927C116.59 27.6855 114.477 27.6281 113.909 29.7876C113.567 31.0904 114.419 32.3141 115.484 33.0095C117.58 34.3793 120.382 33.4007 122.004 31.7744C122.308 31.4701 122.003 30.8271 121.555 31.004C119.964 31.6313 115.91 33.6935 115.196 30.7173C114.624 28.3326 118.938 29.0957 120.231 28.7915C123.833 27.9439 122.413 21.6786 121.971 19.2276C121.924 18.9728 121.502 19.0308 121.517 19.2892Z" fill="#B7837D"/>
<path d="M161.348 38.7828C161.348 41.5309 157.071 43.6203 152.627 43.6203C148.183 43.6203 144.581 41.3926 144.581 38.6446C144.581 35.8965 148.951 33.9459 153.393 33.9459C157.837 33.9453 161.348 36.0347 161.348 38.7828Z" fill="#D69E96"/>
<path d="M99.4532 36.8359C99.4532 39.1577 95.8397 40.9229 92.0853 40.9229C88.3309 40.9229 86.0031 39.1577 86.0031 36.8359C86.0031 34.514 88.9789 32.7488 92.7333 32.7488C96.4876 32.7488 99.4532 34.5146 99.4532 36.8359Z" fill="#D69E96"/>
<path d="M113.611 51.9019C112.263 52.2279 110.966 52.7562 109.6 52.997C108.234 53.2373 106.73 53.154 105.6 52.3517C104.356 51.4679 103.804 49.8928 103.595 48.3829C103.445 47.2963 103.437 46.1752 103.73 45.1181C104.41 42.6677 106.582 40.9254 108.82 39.7089C117.578 34.9481 129.241 36.2068 136.777 42.7262C137.343 43.2158 137.889 43.7344 138.327 44.3405C140.165 46.8858 139.526 50.8672 136.984 52.7115C136.056 53.3846 134.954 53.7801 133.84 54.0578C130.561 54.8758 126.493 54.874 123.361 53.451C120.091 51.9653 117.35 50.9982 113.611 51.9019Z" fill="#683E3A"/>
<rect width="21.5981" height="5.80008" fill="black" fill-opacity="0" transform="translate(109.697 65.1243)"/>
<path d="M109.793 65.5268C115.777 69.8318 123.782 72.4694 131.097 69.9314C131.387 69.8306 131.355 69.376 131.022 69.3778C126.969 69.4062 123.228 69.9417 119.199 68.9939C116.001 68.2423 112.828 66.8308 110.009 65.1573C109.767 65.0149 109.573 65.3692 109.793 65.5268Z" fill="#B7837D"/>
<rect width="20.5199" height="10.5846" fill="black" fill-opacity="0" transform="translate(167.328 36.83)"/>
<path d="M170.068 41.5267C173.852 38.7641 178.446 37.1208 183.127 36.8552C184.078 36.8015 185.057 36.8069 185.949 37.1438C186.84 37.4806 187.634 38.2093 187.809 39.1438C188.127 40.8378 186.441 42.1883 184.914 42.9943C179.52 45.8437 173.432 47.3741 167.328 47.4146" fill="#EDD4CD"/>
<rect width="13.9305" height="4.13499" fill="black" fill-opacity="0" transform="translate(170.935 39.7446)"/>
<path d="M171.057 43.8714C175.642 42.0114 179.531 40.9953 184.486 40.583C184.991 40.5407 184.994 39.8374 184.486 39.7976C179.923 39.4402 174.621 40.909 170.978 43.6842C170.896 43.747 170.938 43.9191 171.057 43.8714Z" fill="#B7837D"/>
<rect width="27.0351" height="8.12852" fill="black" fill-opacity="0" transform="translate(109.017 46.4819)"/>
<path d="M132.266 49.4201C127.191 46.1945 120.542 45.5727 114.96 47.8131C112.437 48.8255 109.996 50.6173 109.017 53.0762C109.213 53.0562 109.408 53.0309 109.6 52.9971C110.966 52.7562 112.263 52.228 113.611 51.902C117.35 50.9982 120.091 51.9653 123.361 53.4511C126.493 54.874 130.562 54.8758 133.84 54.0578C134.601 53.8682 135.353 53.6153 136.052 53.2639C135.235 51.6852 133.795 50.3921 132.266 49.4201Z" fill="#8A605D"/>
<rect width="27.0351" height="8.12734" fill="black" fill-opacity="0" transform="translate(109.017 46.4819)"/>
<path d="M132.266 49.4201C127.191 46.1945 120.542 45.5727 114.96 47.8131C112.437 48.8255 109.996 50.6173 109.017 53.0762C109.213 53.0562 109.408 53.0309 109.6 52.9971C110.966 52.7562 112.263 52.228 113.611 51.902C114.297 51.7365 114.948 51.6345 115.577 51.5862C115.593 51 115.722 50.4368 116.024 50.1898C116.637 49.6882 117.781 49.83 118.566 49.9466C118.664 49.961 119.566 49.8946 119.705 52.0372C120.338 52.2171 120.967 52.4392 121.607 52.6952C121.621 52.1803 121.635 51.6653 121.65 51.1503C121.656 50.9282 121.67 50.6849 121.819 50.5219C121.921 50.4102 122.069 50.3565 122.214 50.316C122.813 50.1488 123.456 50.147 124.056 50.3112C124.239 50.3613 124.419 50.4271 124.577 50.5334C124.998 50.8177 125.188 51.3393 125.321 51.8337C125.507 52.5238 125.478 53.2802 125.427 54.158C128.156 54.8366 131.245 54.7062 133.84 54.0584C134.601 53.8688 135.353 53.6159 136.052 53.2645C135.235 51.6852 133.795 50.3921 132.266 49.4201Z" fill="#8A605D"/>
<path d="M118.566 49.9465C117.781 49.83 116.637 49.6881 116.024 50.1898C115.722 50.4367 115.593 51.0006 115.577 51.5862C117.045 51.4733 118.381 51.6598 119.706 52.0371C119.566 49.894 118.664 49.961 118.566 49.9465Z" fill="white"/>
<path d="M125.321 51.8336C125.188 51.3392 124.998 50.8176 124.577 50.5333C124.419 50.427 124.239 50.3612 124.056 50.3111C123.456 50.1469 122.813 50.1487 122.214 50.3159C122.069 50.3564 121.921 50.4101 121.819 50.5218C121.67 50.6848 121.655 50.9281 121.65 51.1502C121.636 51.6652 121.622 52.1802 121.607 52.6951C122.18 52.9239 122.762 53.1787 123.361 53.451C124.014 53.7474 124.709 53.9792 125.427 54.1573C125.478 53.2795 125.507 52.5237 125.321 51.8336Z" fill="white"/>
<rect width="43.1239" height="6.0206" fill="black" fill-opacity="0" transform="translate(102.242 10.0503)"/>
<path d="M138.842 10.637C138.914 10.2838 139.318 10.1051 139.677 10.0653C140.742 9.94753 141.749 10.5434 142.606 11.1857C150.782 17.3127 138.117 14.1759 138.842 10.637Z" fill="#937B61"/>
<path d="M102.582 14.5472C102.413 14.7959 102.256 15.0688 102.243 15.3688C102.23 15.6688 102.407 15.996 102.701 16.0588C102.835 16.0878 102.975 16.0594 103.108 16.028C104.835 15.6248 106.436 14.7029 107.65 13.4128C109.202 11.7647 108.075 11.0082 106.265 11.7019C104.814 12.2573 103.455 13.2619 102.582 14.5472Z" fill="#937B61"/>
<path d="M86.2438 112.507C86.9504 111.946 94.0744 107.292 95.0006 108.076C96.1761 109.123 91.3648 111.454 90.5971 112.03C91.6346 111.935 92.3364 112.006 93.9365 112.356C94.9123 112.569 98.4864 113.142 98.4017 114.044C98.3285 114.997 95.8373 114.705 93.9039 114.559C93.2995 114.512 91.9934 114.402 91.4211 114.394C93.4199 114.753 98.3642 115.955 97.7774 117.203C97.2142 118.408 91.8101 116.677 90.3279 116.086C92.2027 116.998 97.7895 118.76 96.9529 120.165C96.5003 120.913 91.4907 118.532 90.2898 118.124C90.9631 118.778 94.8282 121.028 94.0018 122.143C92.7804 123.702 88.2801 118.894 87.4574 118.057C86.631 117.218 84.147 114.082 86.2438 112.507Z" fill="#EDD4CD"/>
<rect width="2.55047" height="2.52084" fill="black" fill-opacity="0" transform="translate(76.5888 76.0831)"/>
<path d="M78.9498 77.9849C78.9558 77.9764 78.9613 77.968 78.9673 77.9595C79.1966 77.6329 79.1966 77.06 78.9673 76.734C78.9613 76.7256 78.9558 76.7177 78.9498 76.7093C78.6237 76.2456 78.098 75.9691 77.5196 76.1285C77.003 76.2704 76.565 76.7962 76.5898 77.3468C76.6128 77.8563 76.8923 78.3012 77.3684 78.5016C77.9806 78.76 78.582 78.5077 78.9498 77.9849Z" fill="#6E5A49"/>
<rect width="3.23814" height="3.01562" fill="black" fill-opacity="0" transform="translate(73.3535 95.4178)"/>
<path d="M74.8215 98.4275C75.3605 98.4698 75.7556 98.2856 76.1591 97.9403C76.9764 97.2406 76.5668 95.668 75.5045 95.4651C74.9854 95.3667 74.5257 95.4096 74.084 95.7114C73.5656 96.0652 73.2056 96.716 73.4131 97.3571C73.6237 98.0043 74.153 98.3744 74.8215 98.4275Z" fill="#6E5A49"/>
<rect width="2.19216" height="6.74406" fill="black" fill-opacity="0" transform="translate(88.3769 84.5518)"/>
<path d="M90.5578 90.7665C90.124 88.9174 89.9964 87.1353 89.8458 85.2547C89.7714 84.3268 88.4283 84.3081 88.3854 85.2547C88.2965 87.2312 88.9153 89.3357 89.7968 91.0871C90.0152 91.5212 90.6619 91.2115 90.5578 90.7665Z" fill="#6E5A49"/>
<path d="M83.6703 74.0862C83.9734 72.362 85.2735 71.148 86.5748 71.3756C87.8754 71.6032 89.1834 72.621 88.8803 74.3458C88.5772 76.07 86.778 77.8485 85.4774 77.6209C84.1767 77.3933 83.3673 75.811 83.6703 74.0862Z" fill="#9E846F"/>
<path d="M83.6044 101.229C83.6558 102.757 82.7671 104.026 81.6195 104.064C80.4719 104.102 79.1767 103.467 79.1252 101.94C79.0738 100.412 80.2856 98.5718 81.4332 98.5326C82.5814 98.4957 83.5529 99.7019 83.6044 101.229Z" fill="#9E846F"/>
<path d="M155.853 159.996C155.853 159.996 134.763 177.19 106.979 161.177C106.979 161.177 99.6709 150.532 104.782 134.674C104.782 134.674 127.146 131.416 146.71 134.674C146.71 134.674 146.699 156.303 155.853 159.996Z" fill="white"/>
<rect width="26.6873" height="7.51815" fill="black" fill-opacity="0" transform="translate(121.51 118.199)"/>
<path d="M121.582 119.136C126.2 118.84 130.729 118.847 135.257 119.947C139.837 121.061 143.735 123.205 147.692 125.671C148.004 125.865 148.385 125.397 148.093 125.152C141.169 119.333 130.335 116.774 121.563 118.99C121.483 119.01 121.497 119.141 121.582 119.136Z" fill="#D3E0DC"/>
<rect width="9.90483" height="6.3261" fill="black" fill-opacity="0" transform="translate(138.424 116.053)"/>
<path d="M138.565 116.58C140.195 117.508 141.935 118.197 143.531 119.198C145.11 120.19 146.525 121.429 148.137 122.363C148.241 122.423 148.382 122.299 148.309 122.192C146.33 119.293 142.188 116.807 138.785 116.06C138.477 115.992 138.274 116.414 138.565 116.58Z" fill="#D3E0DC"/>
<path d="M152.603 157.826C152.603 157.826 148.216 135.762 155.337 133.226C162.458 130.688 177.837 150.901 181.213 155.394C181.213 155.394 183.838 146.223 187.214 146.784C190.59 147.346 193.375 167.054 183.168 166.839C172.96 166.624 160.378 163.816 152.603 157.826Z" fill="#EFF4F3"/>
<rect width="5.31139" height="15.514" fill="black" fill-opacity="0" transform="translate(184.981 150.614)"/>
<path d="M189.577 150.679C189.422 150.639 189.265 150.614 189.107 150.614C186.828 150.614 184.981 154.841 184.981 160.056C184.981 162.762 185.481 164.794 186.279 166.128C190.725 163.699 190.887 155.599 189.577 150.679Z" fill="white"/>
<rect width="4.42815" height="14.6223" fill="black" fill-opacity="0" transform="translate(69.3422 146.719)"/>
<path d="M73.1034 154.35C72.2456 151.363 70.8245 148.452 69.3533 146.719C69.1833 150.693 70.9982 158.718 73.2547 161.341C73.9407 159.827 73.9927 157.449 73.1034 154.35Z" fill="white"/>
<path d="M128.791 108.049C127.962 107.353 124.616 102.473 124.27 101.756C123.588 100.341 122.898 98.9002 122.672 97.3469C122.607 96.9038 122.603 96.3924 122.925 96.0809C123.366 95.6547 124.101 95.8739 124.628 96.1878C126.173 97.1084 127.84 101.611 128.36 102.376C129.137 100.399 129.664 99.2304 130.815 97.7894C131.266 97.2249 131.926 96.6732 132.632 96.8325C133.254 96.9726 133.638 97.6451 133.659 98.2808C133.681 98.9177 132.553 103.938 128.791 108.049Z" fill="#B65454"/>
<rect width="19.261" height="15.6431" fill="black" fill-opacity="0" transform="translate(119.811 125.075)"/>
<rect width="15.9895" height="10.0103" fill="black" fill-opacity="0" transform="translate(119.811 130.708)"/>
<rect width="15.9895" height="10.0103" fill="black" fill-opacity="0" transform="translate(119.811 130.708)"/>
<path d="M123.167 135.624C121.76 136.155 118.627 138.436 120.281 140.236C121.202 141.239 122.959 140.434 123.96 140.011C126.591 138.899 129.026 137.214 131.283 135.487C132.563 134.507 135.6 132.679 135.799 130.893C135.815 130.749 135.63 130.665 135.517 130.731C134.676 131.232 134.018 132.278 133.289 132.947C131.81 134.305 130.193 135.523 128.53 136.647C127.132 137.593 125.676 138.526 124.13 139.216C123.666 139.422 122.652 139.989 122.094 139.916C121.023 139.777 120.902 138.541 121.389 137.662C121.779 136.958 122.664 136.416 123.329 136.007C123.522 135.888 123.398 135.537 123.167 135.624Z" fill="#544948"/>
<rect width="2.67353" height="2.29274" fill="black" fill-opacity="0" transform="translate(120.259 138.137)"/>
<path d="M120.527 139.354C120.79 138.777 121.324 138.39 121.984 138.625C122.502 138.809 122.507 139.271 122.134 139.601C121.806 139.891 121.47 139.881 121.067 139.77C120.707 139.67 120.589 140.181 120.917 140.314C121.503 140.553 122.143 140.416 122.586 139.962C122.999 139.54 123.087 138.84 122.61 138.432C121.91 137.834 120.058 138.155 120.277 139.321C120.298 139.432 120.479 139.459 120.527 139.354Z" fill="#544948"/>
<rect width="4.39924" height="3.05251" fill="black" fill-opacity="0" transform="translate(128.547 129.135)"/>
<path d="M128.993 132.141C130.278 131.279 131.364 130.31 132.802 129.699C133.036 129.599 132.966 129.207 132.731 129.158C132.015 129.009 131.216 129.628 130.674 130.015C129.961 130.524 129.274 131.079 128.634 131.676C128.39 131.901 128.71 132.33 128.993 132.141Z" fill="#544948"/>
<rect width="7.64714" height="7.32836" fill="black" fill-opacity="0" transform="translate(131.425 125.075)"/>
<path d="M134.092 130.164C134.092 130.164 133.186 132.43 135.485 132.403C137.595 132.379 136.687 129.811 136.687 129.811C136.687 129.811 138.709 131.155 139.034 129.274C139.385 127.242 137.172 127.669 137.172 127.669C137.172 127.669 139.15 126.55 137.28 125.385C135.41 124.221 135.26 126.712 135.26 126.712C135.26 126.712 134.9 124.77 133.418 125.385C132.143 125.914 132.059 127.304 133.612 127.809C133.612 127.809 130.681 128.328 131.604 129.891C132.528 131.454 133.591 130.601 134.092 130.164Z" fill="#EAC324"/>
<path d="M136.634 128.563C136.663 129.28 136.102 129.885 135.383 129.913C134.664 129.941 134.058 129.382 134.03 128.665C134.001 127.947 134.572 127.595 135.291 127.567C136.01 127.538 136.606 127.844 136.634 128.563Z" fill="white"/>
<rect width="40.6774" height="50.4439" fill="black" fill-opacity="0" transform="translate(65.2026 70.8741)"/>
<rect width="2.90352" height="1.02507" fill="black" fill-opacity="0" transform="translate(65.3991 81.3058)"/>
<path d="M65.5777 81.7948C66.4168 81.9959 67.2698 82.2428 68.1301 82.3297C68.3484 82.352 68.3539 82.0417 68.1785 81.9741C67.389 81.6699 66.5323 81.5105 65.7108 81.3137C65.398 81.2388 65.2643 81.7194 65.5777 81.7948Z" fill="#9E846F"/>
<rect width="2.36662" height="0.628853" fill="black" fill-opacity="0" transform="translate(65.515 84.9222)"/>
<path d="M65.7471 85.4092C66.3999 85.4654 67.055 85.5444 67.7102 85.5511C67.9026 85.5529 67.9534 85.2492 67.7568 85.2094C67.095 85.073 66.4174 85.0108 65.7471 84.9244C65.4422 84.8852 65.4331 85.3827 65.7471 85.4092Z" fill="#9E846F"/>
<rect width="2.65964" height="0.502335" fill="black" fill-opacity="0" transform="translate(65.2026 88.2119)"/>
<path d="M65.4374 88.7055C66.2033 88.7055 66.9982 88.7568 67.752 88.6113C67.899 88.5829 67.899 88.3439 67.752 88.3149C66.9982 88.1694 66.2033 88.2207 65.4374 88.2207C65.1246 88.2207 65.124 88.7055 65.4374 88.7055Z" fill="#9E846F"/>
<rect width="1.39822" height="1.09864" fill="black" fill-opacity="0" transform="translate(72.586 71.3448)"/>
<path d="M72.6739 71.7227C73.0181 71.9654 73.3605 72.202 73.7211 72.4206C73.8826 72.519 74.0834 72.2763 73.9286 72.1525C73.5868 71.8796 73.2347 71.6291 72.8741 71.3804C72.663 71.2343 72.467 71.5766 72.6739 71.7227Z" fill="#9E846F"/>
<rect width="1.69372" height="1.19293" fill="black" fill-opacity="0" transform="translate(75.8116 70.8741)"/>
<path d="M75.8893 71.1854C76.3817 71.4776 76.8705 71.7764 77.3708 72.0535C77.4773 72.1127 77.5577 71.9635 77.464 71.8941C77.0024 71.5524 76.5263 71.23 76.055 70.9022C75.8826 70.7827 75.706 71.0767 75.8893 71.1854Z" fill="#9E846F"/>
<rect width="2.25753" height="1.39176" fill="black" fill-opacity="0" transform="translate(66.8542 102.257)"/>
<path d="M67.2099 103.619C67.5445 103.443 67.8814 103.27 68.2142 103.091C68.5082 102.932 68.859 102.781 69.0744 102.52C69.1488 102.43 69.1119 102.243 68.9655 102.257C68.6316 102.292 68.3224 102.48 68.029 102.635C67.6739 102.822 67.3236 103.019 66.9716 103.212C66.7042 103.358 66.9413 103.76 67.2099 103.619Z" fill="#9E846F"/>
<rect width="0.728769" height="0.727182" fill="black" fill-opacity="0" transform="translate(68.674 104.923)"/>
<path d="M68.9685 105.598C69.0998 105.455 69.231 105.31 69.3623 105.167C69.4869 105.03 69.2964 104.839 69.1591 104.964C69.0151 105.095 68.8705 105.226 68.7265 105.357C68.5632 105.505 68.8197 105.761 68.9685 105.598Z" fill="#9E846F"/>
<rect width="1.04446" height="1.12399" fill="black" fill-opacity="0" transform="translate(71.6895 106.353)"/>
<path d="M72.1657 107.358C72.3442 107.101 72.5232 106.844 72.7059 106.59C72.8148 106.439 72.5801 106.272 72.4537 106.396C72.2268 106.617 71.9981 106.835 71.7682 107.053C71.5105 107.296 71.9497 107.67 72.1657 107.358Z" fill="#9E846F"/>
<rect width="2.5181" height="1.55229" fill="black" fill-opacity="0" transform="translate(98.9167 90.8224)"/>
<path d="M99.0206 91.217C99.409 91.4325 99.7974 91.648 100.186 91.8635C100.531 92.0549 100.882 92.3036 101.276 92.3725C101.401 92.3936 101.486 92.2596 101.399 92.1612C101.135 91.8617 100.742 91.6951 100.398 91.5019C100.01 91.2852 99.6226 91.0679 99.2354 90.8511C98.9964 90.7177 98.7823 91.0848 99.0206 91.217Z" fill="#9E846F"/>
<rect width="1.18465" height="0.974118" fill="black" fill-opacity="0" transform="translate(98.2949 92.9994)"/>
<path d="M98.3969 93.389C98.6818 93.5797 98.9661 93.7693 99.2565 93.9522C99.3957 94.0404 99.5608 93.8333 99.4344 93.7216C99.1779 93.4952 98.9165 93.2761 98.6534 93.0563C98.4193 92.8607 98.141 93.2181 98.3969 93.389Z" fill="#9E846F"/>
<rect width="1.81047" height="2.06864" fill="black" fill-opacity="0" transform="translate(95.3034 97.3961)"/>
<path d="M95.3606 97.7895C95.6255 98.101 95.8899 98.4119 96.1549 98.724C96.3702 98.9776 96.5796 99.3494 96.905 99.4563C97.0375 99.4998 97.1307 99.3675 97.1113 99.2504C97.0563 98.9202 96.6957 98.6419 96.4834 98.3968C96.216 98.0877 95.948 97.7792 95.6806 97.4701C95.4888 97.2503 95.1736 97.5691 95.3606 97.7895Z" fill="#9E846F"/>
<rect width="1.5222" height="1.54204" fill="black" fill-opacity="0" transform="translate(94.3651 99.3175)"/>
<path d="M94.4277 99.6512C94.6758 99.8462 94.9044 100.061 95.1095 100.3C95.2777 100.496 95.4217 100.811 95.6993 100.857C95.7732 100.869 95.8579 100.839 95.876 100.757C95.9456 100.449 95.6776 100.204 95.4785 100.002C95.2329 99.7526 94.9565 99.5365 94.6637 99.3457C94.4822 99.2268 94.2523 99.5136 94.4277 99.6512Z" fill="#9E846F"/>
<rect width="1.63448" height="1.90787" fill="black" fill-opacity="0" transform="translate(97.407 106.253)"/>
<path d="M97.4834 106.702C97.7102 106.934 97.9274 107.175 98.1283 107.429C98.311 107.662 98.4707 107.967 98.7217 108.127C98.8947 108.238 99.0678 108.056 99.0381 107.884C98.9879 107.587 98.7284 107.316 98.5433 107.087C98.3291 106.822 98.098 106.571 97.8554 106.331C97.6153 106.091 97.2462 106.46 97.4834 106.702Z" fill="#9E846F"/>
<rect width="2.42749" height="1.57246" fill="black" fill-opacity="0" transform="translate(102.169 101.194)"/>
<path d="M102.297 101.686C102.669 101.843 103.03 102.018 103.38 102.219C103.692 102.4 104 102.678 104.353 102.761C104.511 102.799 104.658 102.627 104.569 102.48C104.372 102.154 103.969 101.952 103.645 101.767C103.275 101.555 102.891 101.375 102.497 101.211C102.228 101.099 102.026 101.572 102.297 101.686Z" fill="#9E846F"/>
<rect width="2.18357" height="1.48811" fill="black" fill-opacity="0" transform="translate(103.696 100.221)"/>
<path d="M103.786 100.58C104.115 100.786 104.444 100.99 104.773 101.195C105.07 101.38 105.359 101.601 105.697 101.703C105.842 101.746 105.938 101.561 105.84 101.457C105.599 101.201 105.269 101.041 104.97 100.858C104.64 100.655 104.31 100.454 103.98 100.251C103.769 100.121 103.578 100.451 103.786 100.58Z" fill="#9E846F"/>
<rect width="1.37575" height="1.35989" fill="black" fill-opacity="0" transform="translate(102.563 110.989)"/>
<path d="M102.613 111.387C102.914 111.78 103.252 112.088 103.687 112.328C103.845 112.415 104.032 112.197 103.886 112.071C103.57 111.797 103.295 111.474 103.08 111.115C102.897 110.811 102.407 111.117 102.613 111.387Z" fill="#9E846F"/>
<rect width="0.807262" height="1.92299" fill="black" fill-opacity="0" transform="translate(100.025 117.824)"/>
<path d="M100.034 118.12C100.177 118.65 100.324 119.177 100.557 119.676C100.617 119.806 100.845 119.745 100.831 119.602C100.78 119.053 100.64 118.524 100.496 117.994C100.416 117.697 99.9534 117.823 100.034 118.12Z" fill="#9E846F"/>
<rect width="0.573094" height="0.674375" fill="black" fill-opacity="0" transform="translate(101.865 118.938)"/>
<path d="M101.909 119.198C102.022 119.325 102.136 119.452 102.25 119.579C102.333 119.671 102.488 119.552 102.422 119.447C102.331 119.302 102.241 119.157 102.15 119.011C102.034 118.825 101.757 119.03 101.909 119.198Z" fill="#9E846F"/>
<rect width="0.706448" height="1.70429" fill="black" fill-opacity="0" transform="translate(80.385 113.278)"/>
<path d="M80.5923 113.455C80.4283 113.911 80.3551 114.377 80.3963 114.861C80.4071 114.988 80.614 115.041 80.6382 114.894C80.7096 114.456 80.8385 114.038 81.0551 113.649C81.2311 113.334 80.7181 113.104 80.5923 113.455Z" fill="#9E846F"/>
<rect width="0.715859" height="1.75286" fill="black" fill-opacity="0" transform="translate(82.1766 114.665)"/>
<path d="M82.4858 114.861C82.4477 115.355 82.2916 115.802 82.1803 116.279C82.15 116.408 82.3128 116.467 82.3866 116.366C82.6884 115.951 82.8149 115.417 82.8893 114.916C82.9329 114.623 82.5094 114.563 82.4858 114.861Z" fill="#9E846F"/>
<rect width="0.537803" height="1.63954" fill="black" fill-opacity="0" transform="translate(77.3527 119.678)"/>
<path d="M77.3823 119.915C77.4223 120.33 77.3212 120.743 77.363 121.153C77.3793 121.316 77.5796 121.383 77.6757 121.238C77.9171 120.871 77.9038 120.337 77.8754 119.915C77.8536 119.598 77.3521 119.601 77.3823 119.915Z" fill="#9E846F"/>
<rect width="0.789423" height="2.04131" fill="black" fill-opacity="0" transform="translate(79.8452 118.362)"/>
<path d="M80.1966 118.574C80.1876 118.88 80.147 119.179 80.0629 119.474C79.9904 119.729 79.8663 119.966 79.8458 120.231C79.8331 120.394 80.0448 120.454 80.1495 120.357C80.5814 119.956 80.6352 119.126 80.6346 118.574C80.6346 118.292 80.2051 118.292 80.1966 118.574Z" fill="#9E846F"/>
<rect width="0.505754" height="2.84887" fill="black" fill-opacity="0" transform="translate(91.5342 126.991)"/>
<path d="M91.5342 127.236C91.5361 127.68 91.5367 128.124 91.5397 128.569C91.5421 128.962 91.5046 129.378 91.6583 129.746C91.7109 129.871 91.8633 129.872 91.916 129.746C92.069 129.38 92.0321 128.959 92.0345 128.569C92.0376 128.124 92.0382 127.68 92.04 127.236C92.0418 126.91 91.533 126.91 91.5342 127.236Z" fill="#9E846F"/>
<rect width="0.556187" height="1.99864" fill="black" fill-opacity="0" transform="translate(94.7662 125.977)"/>
<path d="M94.7666 126.204C94.7835 126.521 94.7998 126.838 94.8168 127.156C94.8307 127.429 94.8379 127.685 95.0007 127.916C95.0509 127.987 95.167 128.004 95.2136 127.916C95.3443 127.67 95.3292 127.426 95.3092 127.156C95.2856 126.838 95.2626 126.521 95.239 126.204C95.2173 125.904 94.7508 125.899 94.7666 126.204Z" fill="#9E846F"/>
<rect width="0.578471" height="1.90507" fill="black" fill-opacity="0" transform="translate(92.738 134.014)"/>
<path d="M92.7841 134.248C92.7677 134.525 92.7454 134.803 92.7423 135.081C92.7399 135.335 92.7133 135.576 92.8295 135.807C92.9045 135.956 93.1507 135.956 93.2251 135.807C93.3412 135.576 93.3146 135.335 93.3122 135.081C93.3098 134.803 93.2868 134.525 93.2705 134.248C93.2517 133.936 92.8028 133.936 92.7841 134.248Z" fill="#9E846F"/>
<rect width="0.701891" height="2.95401" fill="black" fill-opacity="0" transform="translate(91.1342 135.744)"/>
<path d="M91.2269 136.004C91.124 136.784 91.0175 137.889 91.4386 138.596C91.5517 138.786 91.8076 138.687 91.8276 138.491C91.8681 138.085 91.752 137.662 91.7302 137.253C91.7078 136.835 91.7266 136.419 91.7744 136.004C91.8149 135.652 91.2722 135.662 91.2269 136.004Z" fill="#9E846F"/>
<rect width="0.77428" height="2.67268" fill="black" fill-opacity="0" transform="translate(94.5245 139.268)"/>
<path d="M94.536 139.575C94.654 139.977 94.7296 140.382 94.7369 140.8C94.7429 141.142 94.6552 141.494 94.7689 141.823C94.8034 141.922 94.9528 141.993 95.0321 141.892C95.5179 141.276 95.2323 140.125 95.0182 139.442C94.922 139.138 94.4447 139.266 94.536 139.575Z" fill="#9E846F"/>
<rect width="0.882282" height="2.69739" fill="black" fill-opacity="0" transform="translate(92.767 147.22)"/>
<path d="M92.7913 147.447C92.749 147.918 92.758 148.382 92.85 148.846C92.9256 149.226 93.0012 149.666 93.3382 149.89C93.441 149.958 93.611 149.894 93.6346 149.77C93.7018 149.419 93.5215 149.111 93.4362 148.772C93.3267 148.337 93.2698 147.895 93.2632 147.448C93.259 147.139 92.8179 147.149 92.7913 147.447Z" fill="#9E846F"/>
<rect width="0.703176" height="1.93347" fill="black" fill-opacity="0" transform="translate(94.4647 147.438)"/>
<path d="M94.4695 147.711C94.5681 148.208 94.5947 148.841 94.8428 149.286C94.9323 149.448 95.1446 149.356 95.1616 149.2C95.1906 148.939 95.112 148.681 95.0605 148.427C95.0043 148.15 94.948 147.873 94.8918 147.595C94.8361 147.319 94.4151 147.436 94.4695 147.711Z" fill="#9E846F"/>
<rect width="1.03704" height="1.73765" fill="black" fill-opacity="0" transform="translate(76.0778 126.961)"/>
<path d="M76.438 128.624C76.6401 128.38 76.8107 128.121 76.9365 127.829C77.0393 127.591 77.2009 127.29 77.0593 127.045C76.9976 126.938 76.8712 126.942 76.7852 127.009C76.6098 127.147 76.6104 127.409 76.5342 127.609C76.4368 127.863 76.2964 128.101 76.1289 128.315C75.9577 128.532 76.2571 128.843 76.438 128.624Z" fill="#9E846F"/>
<rect width="1.47028" height="1.68707" fill="black" fill-opacity="0" transform="translate(77.5104 127.539)"/>
<path d="M77.8935 129.149C78.098 128.921 78.3025 128.692 78.507 128.464C78.6848 128.264 78.8984 128.068 78.9722 127.805C79.0254 127.614 78.8191 127.483 78.6558 127.562C78.4138 127.679 78.2613 127.93 78.0992 128.138C77.9214 128.365 77.7435 128.593 77.565 128.82C77.3854 129.049 77.6896 129.376 77.8935 129.149Z" fill="#9E846F"/>
<rect width="1.69834" height="2.63255" fill="black" fill-opacity="0" transform="translate(75.9405 105.745)"/>
<path d="M77.1089 105.935C76.9721 106.345 76.7925 106.745 76.5698 107.117C76.3738 107.445 76.0841 107.731 75.954 108.092C75.8796 108.3 76.1294 108.434 76.2958 108.355C76.6806 108.17 76.9328 107.725 77.1349 107.367C77.3648 106.96 77.5215 106.531 77.6297 106.078C77.7114 105.739 77.219 105.606 77.1089 105.935Z" fill="#9E846F"/>
<rect width="1.33443" height="1.18377" fill="black" fill-opacity="0" transform="translate(92.286 77.7877)"/>
<path d="M92.6613 78.92C92.8682 78.7552 93.0757 78.5904 93.2826 78.4262C93.4544 78.2904 93.6286 78.1998 93.6201 77.9589C93.6177 77.8901 93.5699 77.811 93.4967 77.7972C93.2499 77.7513 93.1501 77.8792 92.9765 78.041C92.7702 78.233 92.5627 78.4238 92.3558 78.6152C92.1483 78.8077 92.4495 79.0879 92.6613 78.92Z" fill="#9E846F"/>
<rect width="1.49489" height="2.21266" fill="black" fill-opacity="0" transform="translate(55.6884 89.7924)"/>
<path d="M56.7701 89.8973C56.3418 90.4581 55.8281 91.1204 55.6908 91.8279C55.6672 91.9492 55.8233 92.0736 55.9195 91.9607C56.3829 91.4156 56.6823 90.7382 57.1246 90.1701C57.3236 89.9148 56.9691 89.6358 56.7701 89.8973Z" fill="#9E846F"/>
<rect width="0.988333" height="1.72339" fill="black" fill-opacity="0" transform="translate(57.8679 91.1229)"/>
<path d="M58.389 91.2881C58.2002 91.7421 57.9988 92.1846 57.8736 92.6603C57.8294 92.8288 58.0563 92.9175 58.1488 92.7756C58.4192 92.3633 58.6152 91.9166 58.827 91.4716C58.9746 91.1619 58.5227 90.9663 58.389 91.2881Z" fill="#9E846F"/>
<rect width="2.6254" height="0.761718" fill="black" fill-opacity="0" transform="translate(62.9303 72.5504)"/>
<path d="M63.1639 73.0364C63.5626 73.0671 63.9594 73.1094 64.3551 73.1716C64.6781 73.2223 65.0078 73.3237 65.3357 73.311C65.5372 73.3032 65.6539 73.0032 65.4464 72.9035C64.7997 72.5932 63.8711 72.5938 63.1645 72.551C62.8505 72.5317 62.8541 73.0122 63.1639 73.0364Z" fill="#9E846F"/>
<rect width="1.93279" height="0.713226" fill="black" fill-opacity="0" transform="translate(62.3625 74.7732)"/>
<path d="M62.4942 75.1361C62.7786 75.1783 63.0605 75.2333 63.3381 75.3063C63.5928 75.3733 63.8481 75.5013 64.1143 75.485C64.2547 75.4765 64.3666 75.2882 64.2401 75.1819C64.0193 74.9948 63.7302 74.9543 63.4513 74.8988C63.1512 74.8396 62.8481 74.7998 62.5438 74.7738C62.3388 74.7563 62.2879 75.1053 62.4942 75.1361Z" fill="#9E846F"/>
<rect width="2.33986" height="1.2425" fill="black" fill-opacity="0" transform="translate(42.9793 86.2213)"/>
<path d="M43.2807 87.4473C43.6775 87.2813 44.0744 87.1147 44.4712 86.9481C44.7822 86.8177 45.098 86.7283 45.2988 86.4452C45.349 86.3746 45.3013 86.2417 45.2105 86.2297C44.8608 86.1826 44.591 86.3438 44.2752 86.4844C43.882 86.6601 43.4894 86.8358 43.0962 87.0109C42.8512 87.1201 43.0296 87.553 43.2807 87.4473Z" fill="#9E846F"/>
<rect width="0.622562" height="2.50798" fill="black" fill-opacity="0" transform="translate(57.9427 107.59)"/>
<path d="M58.2093 107.703C58.153 108.083 58.0901 108.456 58.0453 108.837C58.0018 109.208 57.8826 109.604 57.98 109.969C58.0223 110.128 58.2268 110.138 58.3115 110.013C58.5045 109.727 58.5099 109.342 58.5426 109.004C58.5843 108.576 58.5638 108.171 58.5184 107.745C58.5015 107.586 58.2377 107.514 58.2093 107.703Z" fill="#9E846F"/>
<rect width="0.495415" height="2.65561" fill="black" fill-opacity="0" transform="translate(48.8098 121.115)"/>
<path d="M48.8372 121.256C48.8257 122.047 48.735 122.9 48.9631 123.665C49.0018 123.796 49.2184 123.814 49.2468 123.665C49.3962 122.876 49.2226 122.044 49.1313 121.256C49.1107 121.073 48.8403 121.062 48.8372 121.256Z" fill="#9E846F"/>
<path d="M84.8809 89.2481C84.7829 90.793 82.5185 92.6367 81.8076 92.5921C81.0968 92.5474 76.5971 90.0082 76.6951 88.4627C76.7931 86.9178 81.8222 87.0277 82.533 87.0724C83.2432 87.1171 84.9789 87.702 84.8809 89.2481Z" fill="#937765"/>
<path d="M84.8808 89.2482C84.7828 90.7931 82.5184 92.6368 81.8076 92.5921C81.0968 92.5475 80.9703 91.334 81.0683 89.7885C81.1663 88.2431 81.8221 87.0272 82.5323 87.0719C83.2432 87.1171 84.9788 87.7021 84.8808 89.2482Z" fill="#544948"/>
<g opacity="0.51">
<rect width="111.213" height="152.783" fill="black" fill-opacity="0" transform="translate(138.148 7.96045)"/>
<path d="M249.261 151.238C248.783 149.297 246.883 148.603 245.263 148.462C240.888 148.081 236.421 149.562 232.771 152.605C234.336 150.46 238.326 46.9896 211.479 21.7487C183.223 -4.81606 150.329 13.749 140.041 21.8254L138.148 25.6583C138.148 25.6583 171.924 3.3273 200.336 20.1072C231.464 38.4912 228.12 108.538 225.083 138.848C224.484 138.571 223.76 138.675 223.155 138.993C221.024 140.112 220.037 143.399 220.372 146.26C220.707 149.122 222.074 151.619 223.534 153.861C220.048 149.6 215.641 146.532 210.91 145.072C210.008 144.794 208.838 144.703 208.367 145.707C208.053 146.377 208.226 147.23 208.456 147.953C210.554 154.557 216.89 159.878 221.723 160.151C232 161.864 238.732 159.577 245.25 156.894C246.315 156.455 247.401 155.954 248.233 155.013C249.064 154.071 249.592 152.58 249.261 151.238Z" fill="#BEE8FF"/>
</g>
<g opacity="0.51">
<rect width="102.587" height="145.953" fill="black" fill-opacity="0" transform="translate(4.39313 12.5687)"/>
<path d="M105.172 25.814C95.3443 18.0987 63.9201 0.363073 36.9273 25.741C7.48442 53.4226 15.3695 132.088 17.4391 148.915C14.6091 146.583 11.3798 144.943 8.18981 143.551C6.37371 142.759 3.31442 143.821 4.77722 146.719C7.76633 152.643 12.7561 156.933 18.744 157.956C28.7754 159.592 35.3478 157.408 41.7089 154.844C42.7495 154.425 43.8088 153.947 44.6206 153.046C45.4325 152.146 45.9491 150.722 45.6261 149.44C45.159 147.586 43.3048 146.923 41.7234 146.788C37.4518 146.424 33.0925 147.839 29.5292 150.747C31.0568 148.697 32.0005 146.006 32.162 143.238C32.2134 142.357 32.1753 141.417 31.7791 140.68C30.7882 138.836 28.3865 139.487 27.009 140.911C26.015 141.938 25.2322 143.26 24.7174 144.721C21.9279 121.734 15.0271 43.3933 47.5722 24.1725C74.7144 8.1424 106.98 29.4755 106.98 29.4755L105.172 25.814ZM20.3647 151.778L20.4004 151.773C20.4385 151.831 20.4754 151.89 20.5135 151.947C20.4645 151.889 20.4137 151.835 20.3647 151.778Z" fill="#BEE8FF"/>
</g>
<rect width="9.74892" height="13.2823" fill="black" fill-opacity="0" transform="translate(131.896 17.0632)"/>
<path d="M134.196 17.248C132.517 20.2871 131.467 24.1405 132.066 27.6215C132.23 28.5783 132.616 29.8787 133.64 30.2452C134.84 30.6744 136.004 29.6372 136.735 28.8228C138.926 26.3821 140.782 22.8824 141.626 19.7474C141.774 19.1986 141.017 18.8913 140.719 19.3658C138.952 22.1821 137.957 25.5459 135.647 28.0272C135.001 28.7208 134.007 29.6421 133.391 28.4715C132.71 27.179 132.916 25.2453 133.079 23.8634C133.333 21.7233 133.9 19.5657 134.831 17.6193C135.033 17.1973 134.428 16.8285 134.196 17.248Z" fill="#544948"/>
<rect width="7.91298" height="11.9857" fill="black" fill-opacity="0" transform="translate(103.029 18.2876)"/>
<rect width="7.91298" height="11.9857" fill="black" fill-opacity="0" transform="translate(103.029 18.2876)"/>
<path d="M109.479 18.7416C109.924 20.5757 110.021 22.4894 109.892 24.3699C109.802 25.6896 109.639 27.5472 108.763 28.6279C108.021 29.5437 107.332 28.527 106.903 27.8074C105.335 25.1741 105.091 22.0366 104.004 19.2312C103.816 18.747 103.004 18.7621 103.03 19.3628C103.149 22.1465 104.11 25.2332 105.342 27.7392C105.839 28.7498 106.609 30.1305 107.871 30.2627C110.298 30.5162 110.788 26.1382 110.901 24.5716C111.048 22.5419 110.796 20.4893 110.189 18.5466C110.048 18.0956 109.367 18.2804 109.479 18.7416Z" fill="#544948"/>
<path opacity="0.51" d="M156.801 5.93407C156.801 5.93407 159.061 -1.36531 162.386 0.227263C165.712 1.81923 158.796 4.87216 156.801 5.93407Z" fill="white"/>
<path opacity="0.51" d="M194.287 25.3275C194.287 25.3275 199.429 26.4444 198.531 28.8097C197.633 31.175 195.133 26.6285 194.287 25.3275Z" fill="white"/>
<path opacity="0.51" d="M70.7508 25.5671C70.7508 25.5671 63.2662 23.96 63.0296 27.6329C62.7931 31.3059 68.8463 26.7829 70.7508 25.5671Z" fill="white"/>
<path opacity="0.51" d="M8.93392 131.651C8.93392 131.651 6.01255 121.32 1.28659 123.441C-3.43877 125.562 6.16863 130.091 8.93392 131.651Z" fill="white"/>
<path opacity="0.51" d="M249.361 138.45C249.361 138.45 252.569 129.601 256.108 131.858C259.646 134.114 251.677 137.305 249.361 138.45Z" fill="white"/>
<path opacity="0.51" d="M213.692 137.721C213.692 137.721 206.39 135.294 209.198 132.708C211.291 130.78 214.023 134.983 213.692 137.721Z" fill="white"/>
<path opacity="0.51" d="M85.3902 7.1258C85.3902 7.1258 83.5094 1.89894 81.147 3.1637C78.7847 4.42846 83.9069 6.42008 85.3902 7.1258Z" fill="white"/>
<path opacity="0.51" d="M31.3447 131.183C31.3447 131.183 32.3278 125.716 34.868 126.572C37.4083 127.427 32.6902 130.24 31.3447 131.183Z" fill="white"/>
<path opacity="0.51" d="M242.603 128.889C242.603 128.889 242.127 123.356 244.803 123.522C247.479 123.688 243.657 127.63 242.603 128.889Z" fill="white"/>
</svg>
