<svg width="164" height="171" viewBox="0 0 164 171" fill="none" xmlns="http://www.w3.org/2000/svg">
<rect width="164" height="171" fill="black" fill-opacity="0"/>
<rect width="159" height="165.99" fill="black" fill-opacity="0" transform="translate(2.5 2.50488)"/>
<path d="M85.9167 149.563C85.9167 160.019 94.3767 168.495 104.812 168.495H104.833H21.3957C10.9597 168.495 2.5 160.019 2.5 149.563V146.839H85.9167V149.563Z" fill="#B3D8F4"/>
<path d="M161.5 29.7246H123.708V21.4375C123.708 10.9811 132.168 2.50488 142.604 2.50488C153.04 2.50488 161.5 10.9814 161.5 21.4375L161.5 29.7246Z" fill="#B3D8F4"/>
<path d="M40.2917 146.839H85.9167V149.563C85.9167 160.019 94.3767 168.495 104.813 168.495C115.249 168.495 123.709 160.019 123.709 149.563V21.4378C123.709 10.9814 132.169 2.50488 142.604 2.50488H59.1877C48.7517 2.50488 40.292 10.9814 40.292 21.4378L40.2917 146.839Z" fill="#D1E7F8"/>
<rect width="80.125" height="165.991" fill="black" fill-opacity="0" transform="translate(40.2917 2.50488)"/>
<path d="M69.1877 2.50488H59.1877C48.7517 2.50488 40.2917 10.9814 40.2917 21.4378V146.839H50.2917V21.4378C50.2917 10.9814 58.7517 2.50488 69.1877 2.50488Z" fill="#9BC9FF"/>
<path d="M95.9166 149.563V146.839H85.9166V149.563C85.9166 160.019 94.3766 168.496 104.813 168.496C106.544 168.496 108.22 168.262 109.813 167.826C101.803 165.629 95.9166 158.284 95.9166 149.563Z" fill="#9BC9FF"/>
<path d="M92 94.8516C107.694 94.8516 120.417 82.1041 120.417 66.3794C120.417 50.6546 107.694 37.9072 92 37.9072C76.3059 37.9072 63.5833 50.6546 63.5833 66.3794C63.5833 82.1041 76.3059 94.8516 92 94.8516Z" fill="#9BC9FF"/>
<path d="M82 94.8516C97.6941 94.8516 110.417 82.1041 110.417 66.3794C110.417 50.6546 97.6941 37.9072 82 37.9072C66.3059 37.9072 53.5833 50.6546 53.5833 66.3794C53.5833 82.1041 66.3059 94.8516 82 94.8516Z" fill="#57A4FF"/>
<rect width="11.6667" height="39.1396" fill="black" fill-opacity="0" transform="translate(82.8333 46.8112)"/>
<path d="M94.5 46.8112H82.8333V58.5006H94.5V46.8112Z" fill="#006DF0"/>
<path d="M94.4999 65.4308H82.8333V85.9508H94.4999V65.4308Z" fill="#006DF0"/>
<rect width="11.6667" height="39.1396" fill="black" fill-opacity="0" transform="translate(76.1667 46.8112)"/>
<path d="M87.8334 46.8112H76.1667V58.5006H87.8334V46.8112Z" fill="white"/>
<path d="M87.8334 65.4308H76.1667V85.9508H87.8334V65.4308Z" fill="white"/>
<rect width="145.104" height="165.991" fill="black" fill-opacity="0" transform="translate(2.5 2.50488)"/>
<path d="M147.604 3.17486C146.012 2.738 144.335 2.50488 142.604 2.50488C132.168 2.50488 123.708 10.9814 123.708 21.4378V29.7246H133.708V21.4378C133.708 12.7158 139.595 5.37114 147.604 3.17486Z" fill="#57A4FF"/>
<path d="M12.5 149.563V146.839H2.5V149.563C2.5 160.019 10.96 168.496 21.396 168.496H31.396C20.96 168.495 12.5 160.019 12.5 149.563Z" fill="#57A4FF"/>
<path d="M63.5824 66.3794C63.5824 52.3641 73.6894 40.7137 86.9991 38.3468C85.3757 38.0579 83.7051 37.9072 81.9991 37.9072C66.3051 37.9072 53.5824 50.6547 53.5824 66.3794C53.5824 82.104 66.3051 94.8516 81.9991 94.8516C83.7051 94.8516 85.3757 94.7009 86.9991 94.412C73.6894 92.0451 63.5824 80.3947 63.5824 66.3794Z" fill="#006DF0"/>
<rect width="6.66667" height="39.1396" fill="black" fill-opacity="0" transform="translate(76.1667 46.8112)"/>
<path d="M82.8334 46.8112H76.1667V58.5006H82.8334V46.8112Z" fill="#BDDBFF"/>
<path d="M82.8334 65.4308H76.1667V85.9508H82.8334V65.4308Z" fill="#BDDBFF"/>
<path d="M110.507 107.052H80.1567V112.062H110.507V107.052Z" fill="#473F57"/>
<path d="M76.8233 107.052H71.8233V112.062H76.8233V107.052Z" fill="#473F57"/>
<path d="M68.49 107.052H63.49V112.062H68.49V107.052Z" fill="#473F57"/>
<path d="M110.507 117.583H92.11V122.592H110.507V117.583Z" fill="#473F57"/>
<path d="M87.22 117.583H53.49V122.592H87.22V117.583Z" fill="#473F57"/>
<path d="M100.34 128.113H53.6667V133.123H100.34V128.113Z" fill="#473F57"/>
<path d="M142.58 16.6992H137.58V21.709H142.58V16.6992Z" fill="black"/>
<path d="M150.913 16.6992H145.913V21.709H150.913V16.6992Z" fill="black"/>
<path d="M134.247 16.6992H129.247V21.709H134.247V16.6992Z" fill="black"/>
<rect width="79.1101" height="150.816" fill="black" fill-opacity="0" transform="translate(36.89 9.18213)"/>
<path d="M50.2233 154.989H45.2233V159.999H50.2233V154.989Z" fill="white"/>
<path d="M80.04 154.989H53.5567V159.999H80.04V154.989Z" fill="white"/>
<path d="M41.89 154.989H36.89V159.999H41.89V154.989Z" fill="white"/>
<path d="M88.7567 9.18213H83.7567V14.1919H88.7567V9.18213Z" fill="white"/>
<path d="M80.4234 9.18213H75.4234V14.1919H80.4234V9.18213Z" fill="white"/>
<path d="M116 9.18213H92.09V14.1919H116V9.18213Z" fill="white"/>
<path d="M142.604 0H59.1877C47.3897 0 37.7917 9.61675 37.7917 21.4378V140.159H42.7917V21.4378C42.7917 12.3791 50.1467 5.00977 59.1877 5.00977H128.873C124.19 8.94544 121.209 14.8489 121.209 21.4378V149.563C121.209 158.621 113.854 165.991 104.813 165.991C95.7717 165.991 88.4167 158.621 88.4167 149.563V144.334H0V149.563C0 161.383 9.598 171 21.396 171H104.833C116.622 170.989 126.208 161.376 126.208 149.563V21.4378C126.208 12.3791 133.563 5.00977 142.604 5.00977C151.645 5.00977 159 12.3791 159 21.4378V27.2197H130.375V32.2295H164V21.4378C164 9.61675 154.402 0 142.604 0ZM21.396 165.99C12.355 165.99 5 158.621 5 149.563V149.343H83.4167V149.563C83.4167 156.151 86.398 162.055 91.0843 165.991L21.396 165.99Z" fill="#473F57"/>
<path d="M58.49 24.558H53.49V29.5677H58.49V24.558Z" fill="#473F57"/>
<path d="M66.8234 24.558H61.8234V29.5677H66.8234V24.558Z" fill="#473F57"/>
<path d="M75.1566 24.558H70.1566V29.5677H75.1566V24.558Z" fill="#473F57"/>
<path d="M81.999 97.3564C99.0467 97.3564 112.916 83.4604 112.916 66.3794C112.916 49.2984 99.0467 35.4023 81.999 35.4023C64.9513 35.4023 51.0823 49.2984 51.0823 66.3794C51.0823 83.4604 64.9513 97.3564 81.999 97.3564ZM81.999 40.4121C96.2893 40.4121 107.916 52.0608 107.916 66.3794C107.916 80.698 96.2893 92.3467 81.999 92.3467C67.7087 92.3467 56.0823 80.698 56.0823 66.3794C56.0823 52.0608 67.7087 40.4121 81.999 40.4121Z" fill="#473F57"/>
<rect width="10.1187" height="31.9996" fill="black" fill-opacity="0" transform="translate(94.4323 50.3796)"/>
<path d="M104.551 67.3859L99.5556 67.1648C99.3613 71.5761 97.5416 75.7215 94.4323 78.8369L97.968 82.3791C101.963 78.376 104.301 73.0516 104.551 67.3859Z" fill="white"/>
<path d="M101.412 54.814C100.458 53.2055 99.299 51.7132 97.968 50.3796L94.4323 53.9219C95.4696 54.9612 96.372 56.1225 97.1143 57.3736L101.412 54.814Z" fill="white"/>
<path d="M99.445 64.243L104.409 63.6411C104.183 61.7728 103.727 59.9389 103.052 58.1902L98.3883 59.9974C98.9133 61.3587 99.2693 62.7871 99.445 64.243Z" fill="white"/>
<path d="M90.3334 44.3048H73.6667V61.004H90.3334V44.3048ZM85.3334 55.9943H78.6667V49.3146H85.3334V55.9943Z" fill="#473F57"/>
<path d="M90.3334 62.9244H73.6667V88.4539H90.3334V62.9244ZM85.3334 83.4444H78.6667V67.9345H85.3334V83.4444Z" fill="#473F57"/>
</svg>
